SplineFontDB: 3.2
FontName: bold
FullName: Jet Impulse Bold Italic
FamilyName: Jet Impulse
Weight: Strong
Copyright: 
Version: 1.0
DefaultBaseFilename: Jet Impulse
ItalicAngle: 0
UnderlinePosition: 77
UnderlineWidth: 51
Ascent: 819
Descent: 205
InvalidEm: 0
sfntRevision: 0x00010000
LayerCount: 2
Layer: 0 1 "Sfondo" 1
Layer: 1 1 "Fore" 0
XUID: [1021 394 1952875658 19760]
StyleMap: 0x0021
FSType: 4
OS2Version: 2
OS2_WeightWidthSlopeOnly: 1
OS2_UseTypoMetrics: 0
CreationTime: 1379761891
ModificationTime: 1778144257
PfmFamily: 81
TTFWeight: 700
TTFWidth: 5
LineGap: 0
VLineGap: 0
Panose: 0 0 8 0 0 0 0 0 0 0
OS2TypoAscent: 576
OS2TypoAOffset: 0
OS2TypoDescent: -64
OS2TypoDOffset: 0
OS2TypoLinegap: 0
OS2WinAscent: 704
OS2WinAOffset: 0
OS2WinDescent: 64
OS2WinDOffset: 0
HheadAscent: 704
HheadAOffset: 0
HheadDescent: -64
HheadDOffset: 0
OS2SubXSize: 512
OS2SubYSize: 512
OS2SubXOff: 0
OS2SubYOff: -32
OS2SupXSize: 512
OS2SupYSize: 512
OS2SupXOff: 0
OS2SupYOff: 512
OS2StrikeYSize: 51
OS2StrikeYPos: 204
OS2CapHeight: 576
OS2XHeight: 384
OS2Vendor: 'FSTR'
OS2CodePages: 00000193.00000000
OS2UnicodeRanges: 80000003.0000000a.00000000.00000000
MarkAttachClasses: 1
DEI: 91125
ShortTable: maxp 16
  1
  0
  157
  52
  13
  0
  0
  2
  0
  0
  0
  0
  0
  0
  0
  0
EndShort
LangName: 1033 "" "" "" "" "" "Version 1.0"
Encoding: UnicodeBmp
UnicodeInterp: none
NameList: AGL For New Fonts
DisplaySize: -48
AntiAlias: 1
FitToEm: 0
WinInfo: 60 20 4
BeginPrivate: 0
EndPrivate
TeXData: 1 0 0 410624 205312 136874 488448 1048576 136874 783286 444596 497025 792723 393216 433062 380633 303038 157286 324010 404750 52429 2506097 1059062 262144
BeginChars: 65539 71

StartChar: comma
Encoding: 44 44 3
Width: 165
VWidth: 1000
GlyphClass: 1
Flags: W
LayerCount: 2
Fore
SplineSet
112.74609375 56.63671875 m 0,0,1
 100.776367188 -11.2451171875 100.776367188 -11.2451171875 83.4521484375 -44.375 c 128,-1,2
 66.126953125 -77.5048828125 66.126953125 -77.5048828125 37.322265625 -89.9462890625 c 128,-1,3
 8.515625 -102.387695312 8.515625 -102.387695312 -46.1376953125 -102.387695312 c 1,4,5
 -42.255859375 -80.3759765625 -42.255859375 -80.3759765625 -32.521484375 -71.0263671875 c 128,-1,6
 -22.787109375 -61.67578125 -22.787109375 -61.67578125 -11.015625 -60.365234375 c 128,-1,7
 0.7568359375 -59.0537109375 0.7568359375 -59.0537109375 12.7353515625 -56.564453125 c 128,-1,8
 24.7138671875 -54.076171875 24.7138671875 -54.076171875 35.3486328125 -39.623046875 c 128,-1,9
 45.984375 -25.1708984375 45.984375 -25.1708984375 51.1806640625 4.298828125 c 1,10,11
 29.6904296875 4.298828125 29.6904296875 4.298828125 16.9140625 19.3173828125 c 128,-1,12
 4.138671875 34.3349609375 4.138671875 34.3349609375 8.0712890625 56.63671875 c 0,13,14
 11.7978515625 77.7724609375 11.7978515625 77.7724609375 30.1494140625 93.373046875 c 128,-1,15
 48.5009765625 108.973632812 48.5009765625 108.973632812 69.6376953125 108.973632812 c 0,16,17
 91.9384765625 108.973632812 91.9384765625 108.973632812 104.237304688 93.5498046875 c 128,-1,18
 116.53515625 78.1259765625 116.53515625 78.1259765625 112.74609375 56.63671875 c 0,0,1
EndSplineSet
EndChar

StartChar: hyphen
Encoding: 45 45 4
Width: 430
VWidth: 1000
GlyphClass: 1
Flags: W
LayerCount: 2
Fore
SplineSet
45.91015625 162.479492188 m 2,0,1
 23.1259765625 162.479492188 23.1259765625 162.479492188 10.048828125 177.37890625 c 128,-1,2
 -3.029296875 192.278320312 -3.029296875 192.278320312 0.91796875 214.666015625 c 0,3,4
 4.6611328125 235.895507812 4.6611328125 235.895507812 23.2763671875 251.374023438 c 128,-1,5
 41.8916015625 266.852539062 41.8916015625 266.852539062 64.314453125 266.852539062 c 2,6,-1
 327.25390625 266.852539062 l 2,7,8
 348.329101562 266.852539062 348.329101562 266.852539062 361.141601562 251.296875 c 128,-1,9
 373.954101562 235.741210938 373.954101562 235.741210938 370.23828125 214.666015625 c 0,10,11
 366.317382812 192.428710938 366.317382812 192.428710938 348.297851562 177.454101562 c 128,-1,12
 330.278320312 162.479492188 330.278320312 162.479492188 308.849609375 162.479492188 c 2,13,-1
 45.91015625 162.479492188 l 2,0,1
EndSplineSet
EndChar

StartChar: period
Encoding: 46 46 5
Width: 166
VWidth: 1000
GlyphClass: 1
Flags: W
LayerCount: 2
Fore
SplineSet
45.0283203125 3.841796875 m 0,0,1
 23.953125 3.841796875 23.953125 3.841796875 11.140625 19.3974609375 c 128,-1,2
 -1.6728515625 34.953125 -1.6728515625 34.953125 2.0439453125 56.0283203125 c 0,3,4
 5.9970703125 78.451171875 5.9970703125 78.451171875 24.2763671875 94.3369140625 c 128,-1,5
 42.556640625 110.22265625 42.556640625 110.22265625 63.7861328125 110.22265625 c 0,6,7
 86.173828125 110.22265625 86.173828125 110.22265625 98.3037109375 94.517578125 c 128,-1,8
 110.434570312 78.8125 110.434570312 78.8125 106.416992188 56.0283203125 c 0,9,10
 102.638671875 34.6005859375 102.638671875 34.6005859375 84.9521484375 19.220703125 c 128,-1,11
 67.265625 3.841796875 67.265625 3.841796875 45.0283203125 3.841796875 c 0,0,1
EndSplineSet
EndChar

StartChar: zero
Encoding: 48 48 6
Width: 599
VWidth: 1000
GlyphClass: 1
Flags: W
LayerCount: 2
Fore
SplineSet
449.520507812 513.806640625 m 1,0,-1
 85.4794921875 202.604492188 l 1,1,-1
 134.973632812 483.296875 l 2,2,3
 138.469726562 503.12890625 138.469726562 503.12890625 157.91015625 519.654296875 c 128,-1,4
 177.350585938 536.180664062 177.350585938 536.180664062 197.181640625 536.180664062 c 2,5,-1
 409.880859375 536.180664062 l 2,6,7
 437.485351562 536.180664062 437.485351562 536.180664062 449.520507812 513.806640625 c 1,0,-1
269.07421875 643.983398438 m 2,8,9
 227.118164062 643.983398438 227.118164062 643.983398438 188.729492188 632.802734375 c 128,-1,10
 150.340820312 621.622070312 150.340820312 621.622070312 114.875976562 597.862304688 c 128,-1,11
 79.4111328125 574.1015625 79.4111328125 574.1015625 53.7255859375 531.166015625 c 128,-1,12
 28.0400390625 488.23046875 28.0400390625 488.23046875 17.845703125 430.413085938 c 2,13,-1
 -20.888671875 210.740234375 l 2,14,15
 -30.69921875 155.100585938 -30.69921875 155.100585938 -19.896484375 113.49609375 c 128,-1,16
 -9.0947265625 71.892578125 -9.0947265625 71.892578125 18.0107421875 48.6494140625 c 128,-1,17
 45.1162109375 25.40625 45.1162109375 25.40625 79.701171875 14.3388671875 c 128,-1,18
 114.286132812 3.2724609375 114.286132812 3.2724609375 156.099609375 3.2724609375 c 2,19,-1
 263.90234375 3.2724609375 l 2,20,21
 305.858398438 3.2724609375 305.858398438 3.2724609375 344.247070312 14.453125 c 128,-1,22
 382.635742188 25.6337890625 382.635742188 25.6337890625 418.100585938 49.3935546875 c 128,-1,23
 453.565429688 73.1533203125 453.565429688 73.1533203125 479.250976562 116.08984375 c 128,-1,24
 504.936523438 159.025390625 504.936523438 159.025390625 515.130859375 216.842773438 c 2,25,-1
 552.7890625 430.413085938 l 2,26,27
 562.983398438 488.23046875 562.983398438 488.23046875 552.439453125 531.166015625 c 128,-1,28
 541.896484375 574.1015625 541.896484375 574.1015625 514.810546875 597.862304688 c 128,-1,29
 487.724609375 621.622070312 487.724609375 621.622070312 453.278320312 632.802734375 c 128,-1,30
 418.833007812 643.983398438 418.833007812 643.983398438 376.876953125 643.983398438 c 2,31,-1
 269.07421875 643.983398438 l 2,8,9
83.455078125 133.448242188 m 1,32,-1
 447.497070312 444.650390625 l 1,33,-1
 398.002929688 163.958984375 l 2,34,35
 394.506835938 144.126953125 394.506835938 144.126953125 375.06640625 127.600585938 c 128,-1,36
 355.625976562 111.07421875 355.625976562 111.07421875 335.794921875 111.07421875 c 2,37,-1
 122.224609375 111.07421875 l 2,38,39
 95.4912109375 111.07421875 95.4912109375 111.07421875 83.455078125 133.448242188 c 1,32,-1
EndSplineSet
EndChar

StartChar: one
Encoding: 49 49 7
Width: 275
VWidth: 1000
GlyphClass: 1
Flags: W
LayerCount: 2
Fore
SplineSet
56.9921875 645.598632812 m 1,0,-1
 270.954101562 645.598632812 l 1,1,-1
 157.772460938 3.7138671875 l 1,2,-1
 50.791015625 3.7138671875 l 1,3,-1
 145.109375 538.618164062 l 1,4,-1
 38.12890625 538.618164062 l 1,5,-1
 56.9921875 645.598632812 l 1,0,-1
EndSplineSet
EndChar

StartChar: two
Encoding: 50 50 8
Width: 598
VWidth: 1000
GlyphClass: 1
Flags: W
LayerCount: 2
Fore
SplineSet
40.6962890625 537.618164062 m 1,0,-1
 415.12890625 537.618164062 l 2,1,2
 433.901367188 537.618164062 433.901367188 537.618164062 444.438476562 529.677734375 c 128,-1,3
 454.974609375 521.73828125 454.974609375 521.73828125 456.694335938 506.694335938 c 128,-1,4
 458.413085938 491.649414062 458.413085938 491.649414062 457.768554688 482.038085938 c 128,-1,5
 457.124023438 472.426757812 457.124023438 472.426757812 454.470703125 457.381835938 c 128,-1,6
 451.818359375 442.337890625 451.818359375 442.337890625 449.073242188 432.7265625 c 128,-1,7
 446.329101562 423.114257812 446.329101562 423.114257812 439.303710938 408.0703125 c 128,-1,8
 432.279296875 393.026367188 432.279296875 393.026367188 418.943359375 385.086914062 c 128,-1,9
 405.606445312 377.146484375 405.606445312 377.146484375 386.833007812 377.146484375 c 2,10,-1
 172.87109375 377.146484375 l 2,11,12
 151.55859375 377.146484375 151.55859375 377.146484375 123.186523438 366.731445312 c 128,-1,13
 94.8134765625 356.31640625 94.8134765625 356.31640625 65.7802734375 337.4140625 c 128,-1,14
 36.7470703125 318.512695312 36.7470703125 318.512695312 13.7587890625 286.495117188 c 128,-1,15
 -9.2294921875 254.478515625 -9.2294921875 254.478515625 -15.89453125 216.674804688 c 2,16,-1
 -53.6220703125 2.7138671875 l 1,17,-1
 320.810546875 2.7138671875 l 2,18,19
 358.099609375 2.7138671875 358.099609375 2.7138671875 388.577148438 15.2509765625 c 128,-1,20
 419.0546875 27.787109375 419.0546875 27.787109375 434.353515625 41.99609375 c 128,-1,21
 449.653320312 56.2041015625 449.653320312 56.2041015625 469.983398438 78.76953125 c 128,-1,22
 490.313476562 101.334960938 490.313476562 101.334960938 500.145507812 109.693359375 c 1,23,-1
 72.2216796875 109.693359375 l 1,24,-1
 91.0859375 216.674804688 l 2,25,26
 94.6220703125 236.732421875 94.6220703125 236.732421875 114.28515625 253.44921875 c 128,-1,27
 133.94921875 270.165039062 133.94921875 270.165039062 154.0078125 270.165039062 c 2,28,-1
 367.969726562 270.165039062 l 2,29,30
 528.44140625 270.165039062 528.44140625 270.165039062 556.736328125 430.63671875 c 2,31,-1
 566.168945312 484.127929688 l 2,32,33
 572.833984375 521.930664062 572.833984375 521.930664062 561.13671875 553.948242188 c 128,-1,34
 549.439453125 585.96484375 549.439453125 585.96484375 527.072265625 604.8671875 c 128,-1,35
 504.704101562 623.768554688 504.704101562 623.768554688 480.004882812 634.18359375 c 128,-1,36
 455.3046875 644.598632812 455.3046875 644.598632812 433.9921875 644.598632812 c 2,37,-1
 220.030273438 644.598632812 l 2,38,39
 182.741210938 644.598632812 182.741210938 644.598632812 152.263671875 632.061523438 c 128,-1,40
 121.786132812 619.525390625 121.786132812 619.525390625 106.487304688 605.31640625 c 128,-1,41
 91.1884765625 591.108398438 91.1884765625 591.108398438 70.857421875 568.541992188 c 128,-1,42
 50.52734375 545.975585938 50.52734375 545.975585938 40.6962890625 537.618164062 c 1,0,-1
EndSplineSet
EndChar

StartChar: three
Encoding: 51 51 9
Width: 597
VWidth: 1000
GlyphClass: 1
Flags: W
LayerCount: 2
Fore
SplineSet
437.755859375 377.146484375 m 1,0,-1
 9.8330078125 377.146484375 l 1,1,-1
 -9.0302734375 270.165039062 l 1,2,-1
 418.892578125 270.165039062 l 1,3,-1
 400.028320312 163.184570312 l 2,4,5
 396.4921875 143.125976562 396.4921875 143.125976562 376.828125 126.409179688 c 128,-1,6
 357.165039062 109.693359375 357.165039062 109.693359375 337.106445312 109.693359375 c 2,7,-1
 -37.326171875 109.693359375 l 1,8,-1
 -56.189453125 2.7138671875 l 1,9,-1
 318.243164062 2.7138671875 l 2,10,11
 478.715820312 2.7138671875 478.715820312 2.7138671875 507.009765625 163.184570312 c 2,12,-1
 554.168945312 430.63671875 l 2,13,14
 568.317382812 510.873046875 568.317382812 510.873046875 513.243164062 577.735351562 c 128,-1,15
 458.169921875 644.598632812 458.169921875 644.598632812 377.934570312 644.598632812 c 2,16,-1
 56.9921875 644.598632812 l 1,17,-1
 38.12890625 537.618164062 l 1,18,-1
 359.071289062 537.618164062 l 2,19,20
 399.188476562 537.618164062 399.188476562 537.618164062 426.725585938 504.186523438 c 128,-1,21
 454.26171875 470.754882812 454.26171875 470.754882812 447.1875 430.63671875 c 2,22,-1
 437.755859375 377.146484375 l 1,0,-1
EndSplineSet
EndChar

StartChar: four
Encoding: 52 52 10
Width: 595
VWidth: 1000
GlyphClass: 1
Flags: W
LayerCount: 2
Fore
SplineSet
107.381835938 323.65625 m 2,0,-1
 163.97265625 644.598632812 l 1,1,-1
 56.9921875 644.598632812 l 1,2,-1
 0.4013671875 323.65625 l 2,3,4
 -6.2646484375 285.852539062 -6.2646484375 285.852539062 5.4326171875 253.8359375 c 128,-1,5
 17.1298828125 221.818359375 17.1298828125 221.818359375 39.4970703125 202.916992188 c 128,-1,6
 61.8642578125 184.014648438 61.8642578125 184.014648438 86.564453125 173.599609375 c 128,-1,7
 111.263671875 163.184570312 111.263671875 163.184570312 132.576171875 163.184570312 c 2,8,-1
 400.028320312 163.184570312 l 1,9,-1
 371.733398438 2.7138671875 l 1,10,-1
 478.71484375 2.7138671875 l 1,11,-1
 591.896484375 644.598632812 l 1,12,-1
 484.915039062 644.598632812 l 1,13,-1
 418.892578125 270.165039062 l 1,14,-1
 151.440429688 270.165039062 l 2,15,16
 131.381835938 270.165039062 131.381835938 270.165039062 117.61328125 286.880859375 c 128,-1,17
 103.844726562 303.59765625 103.844726562 303.59765625 107.381835938 323.65625 c 2,0,-1
EndSplineSet
EndChar

StartChar: five
Encoding: 53 53 11
Width: 598
VWidth: 1000
GlyphClass: 1
Flags: W
LayerCount: 2
Fore
SplineSet
146.676757812 538.618164062 m 1,0,-1
 574.600585938 538.618164062 l 1,1,-1
 593.463867188 645.598632812 l 1,2,-1
 58.5595703125 645.598632812 l 1,3,-1
 1.96875 324.65625 l 1,4,-1
 376.401367188 324.65625 l 2,5,6
 396.459960938 324.65625 396.459960938 324.65625 410.228515625 307.940429688 c 128,-1,7
 423.997070312 291.224609375 423.997070312 291.224609375 420.459960938 271.165039062 c 2,8,-1
 401.595703125 164.184570312 l 2,9,10
 398.059570312 144.125976562 398.059570312 144.125976562 378.395507812 127.409179688 c 128,-1,11
 358.732421875 110.693359375 358.732421875 110.693359375 338.673828125 110.693359375 c 2,12,-1
 -35.7587890625 110.693359375 l 1,13,14
 -28.8740234375 102.3359375 -28.8740234375 102.3359375 -16.501953125 79.76953125 c 128,-1,15
 -4.1298828125 57.2041015625 -4.1298828125 57.2041015625 6.1591796875 42.99609375 c 128,-1,16
 16.447265625 28.787109375 16.447265625 28.787109375 42.50390625 16.2509765625 c 128,-1,17
 68.5595703125 3.7138671875 68.5595703125 3.7138671875 105.848632812 3.7138671875 c 2,18,-1
 319.810546875 3.7138671875 l 2,19,20
 341.123046875 3.7138671875 341.123046875 3.7138671875 369.49609375 14.12890625 c 128,-1,21
 397.869140625 24.544921875 397.869140625 24.544921875 426.90234375 43.4462890625 c 128,-1,22
 455.935546875 62.34765625 455.935546875 62.34765625 478.923828125 94.365234375 c 128,-1,23
 501.912109375 126.381835938 501.912109375 126.381835938 508.577148438 164.184570312 c 2,24,-1
 527.44140625 271.165039062 l 2,25,26
 534.106445312 308.96875 534.106445312 308.96875 522.41015625 340.985351562 c 128,-1,27
 510.712890625 373.002929688 510.712890625 373.002929688 488.344726562 391.904296875 c 128,-1,28
 465.977539062 410.806640625 465.977539062 410.806640625 441.27734375 421.221679688 c 128,-1,29
 416.577148438 431.63671875 416.577148438 431.63671875 395.264648438 431.63671875 c 2,30,-1
 127.8125 431.63671875 l 1,31,-1
 146.676757812 538.618164062 l 1,0,-1
EndSplineSet
EndChar

StartChar: six
Encoding: 54 54 12
Width: 601
VWidth: 1000
GlyphClass: 1
Flags: W
LayerCount: 2
Fore
SplineSet
154.671875 270.55859375 m 2,0,1
 134.779296875 270.55859375 134.779296875 270.55859375 115.278320312 253.981445312 c 128,-1,2
 95.7783203125 237.403320312 95.7783203125 237.403320312 92.2705078125 217.510742188 c 2,3,-1
 82.9169921875 164.461914062 l 2,4,5
 79.4091796875 144.568359375 79.4091796875 144.568359375 93.0634765625 127.991210938 c 128,-1,6
 106.717773438 111.413085938 106.717773438 111.413085938 126.610351562 111.413085938 c 2,7,-1
 340.845703125 111.413085938 l 2,8,9
 360.739257812 111.413085938 360.739257812 111.413085938 380.239257812 127.991210938 c 128,-1,10
 399.740234375 144.568359375 399.740234375 144.568359375 403.248046875 164.461914062 c 2,11,-1
 412.6015625 217.510742188 l 2,12,13
 422.805664062 275.381835938 422.805664062 275.381835938 368.907226562 270.55859375 c 1,14,-1
 154.671875 270.55859375 l 2,0,1
387.975585938 378.696289062 m 2,15,16
 409.185546875 378.696289062 409.185546875 378.696289062 433.930664062 368.32421875 c 128,-1,17
 458.67578125 357.952148438 458.67578125 357.952148438 481.25 339.048828125 c 128,-1,18
 503.825195312 320.145507812 503.825195312 320.145507812 515.649414062 287.922851562 c 128,-1,19
 527.47265625 255.69921875 527.47265625 255.69921875 520.739257812 217.510742188 c 2,20,-1
 511.385742188 164.461914062 l 2,21,22
 504.651367188 126.272460938 504.651367188 126.272460938 481.463867188 94.0498046875 c 128,-1,23
 458.276367188 61.826171875 458.276367188 61.826171875 429.03515625 42.9228515625 c 128,-1,24
 399.794921875 24.01953125 399.794921875 24.01953125 371.391601562 13.6474609375 c 128,-1,25
 342.98828125 3.275390625 342.98828125 3.275390625 321.778320312 3.275390625 c 2,26,-1
 107.54296875 3.275390625 l 2,27,28
 86.3330078125 3.275390625 86.3330078125 3.275390625 61.587890625 13.6474609375 c 128,-1,29
 36.8427734375 24.01953125 36.8427734375 24.01953125 14.267578125 42.9228515625 c 128,-1,30
 -8.306640625 61.826171875 -8.306640625 61.826171875 -20.130859375 94.0498046875 c 128,-1,31
 -31.955078125 126.272460938 -31.955078125 126.272460938 -25.220703125 164.461914062 c 2,32,-1
 21.908203125 431.745117188 l 2,33,34
 32.134765625 489.7421875 32.134765625 489.7421875 57.900390625 532.811523438 c 128,-1,35
 83.6650390625 575.880859375 83.6650390625 575.880859375 119.240234375 599.71484375 c 128,-1,36
 154.815429688 623.548828125 154.815429688 623.548828125 193.323242188 634.764648438 c 128,-1,37
 231.831054688 645.979492188 231.831054688 645.979492188 273.91796875 645.979492188 c 2,38,-1
 596.290039062 645.979492188 l 1,39,-1
 577.22265625 537.841796875 l 1,40,-1
 254.850585938 537.841796875 l 2,41,42
 215.063476562 537.841796875 215.063476562 537.841796875 176.0625 504.686523438 c 128,-1,43
 137.061523438 471.53125 137.061523438 471.53125 130.045898438 431.745117188 c 2,44,-1
 120.692382812 378.696289062 l 1,45,-1
 387.975585938 378.696289062 l 2,15,16
EndSplineSet
EndChar

StartChar: seven
Encoding: 55 55 13
Width: 545
VWidth: 1000
GlyphClass: 1
Flags: W
LayerCount: 2
Fore
SplineSet
360.071289062 537.618164062 m 1,0,-1
 39.12890625 537.618164062 l 1,1,-1
 57.9921875 644.598632812 l 1,2,-1
 539.40625 644.598632812 l 1,3,-1
 520.54296875 537.618164062 l 1,4,5
 463.629882812 511.467773438 463.629882812 511.467773438 398.404296875 424.693359375 c 128,-1,6
 333.1796875 337.919921875 333.1796875 337.919921875 281.943359375 222.619140625 c 128,-1,7
 230.70703125 107.317382812 230.70703125 107.317382812 212.262695312 2.7138671875 c 1,8,-1
 105.28125 2.7138671875 l 1,9,10
 131.21875 149.811523438 131.21875 149.811523438 218.116210938 320.313476562 c 128,-1,11
 305.014648438 490.814453125 305.014648438 490.814453125 360.071289062 537.618164062 c 1,0,-1
EndSplineSet
EndChar

StartChar: eight
Encoding: 56 56 14
Width: 599
VWidth: 1000
GlyphClass: 1
Flags: W
LayerCount: 2
Fore
SplineSet
320.786132812 3.2724609375 m 2,0,1
 341.930664062 3.2724609375 341.930664062 3.2724609375 370.24609375 13.6123046875 c 128,-1,2
 398.560546875 23.9521484375 398.560546875 23.9521484375 427.7109375 42.796875 c 128,-1,3
 456.861328125 61.6416015625 456.861328125 61.6416015625 479.977539062 93.7646484375 c 128,-1,4
 503.092773438 125.887695312 503.092773438 125.887695312 509.805664062 163.958007812 c 2,5,-1
 519.130859375 216.842773438 l 2,6,7
 526.184570312 256.846679688 526.184570312 256.846679688 498.686523438 290.74609375 c 128,-1,8
 471.188476562 324.64453125 471.188476562 324.64453125 430.336914062 324.64453125 c 1,9,10
 471.35546875 324.64453125 471.35546875 324.64453125 510.560546875 357.61328125 c 128,-1,11
 549.765625 390.58203125 549.765625 390.58203125 556.7890625 430.413085938 c 2,12,-1
 566.114257812 483.296875 l 2,13,14
 572.827148438 521.3671875 572.827148438 521.3671875 561.0390625 553.490234375 c 128,-1,15
 549.251953125 585.61328125 549.251953125 585.61328125 526.747070312 604.458007812 c 128,-1,16
 504.2421875 623.302734375 504.2421875 623.302734375 479.57421875 633.643554688 c 128,-1,17
 454.905273438 643.983398438 454.905273438 643.983398438 433.760742188 643.983398438 c 2,18,-1
 220.190429688 643.983398438 l 2,19,20
 199.045898438 643.983398438 199.045898438 643.983398438 170.73046875 633.643554688 c 128,-1,21
 142.416015625 623.302734375 142.416015625 623.302734375 113.265625 604.458007812 c 128,-1,22
 84.115234375 585.61328125 84.115234375 585.61328125 60.9990234375 553.490234375 c 128,-1,23
 37.8837890625 521.3671875 37.8837890625 521.3671875 31.1708984375 483.296875 c 2,24,-1
 21.845703125 430.413085938 l 2,25,26
 14.822265625 390.58203125 14.822265625 390.58203125 42.4013671875 357.61328125 c 128,-1,27
 69.9794921875 324.64453125 69.9794921875 324.64453125 110.999023438 324.64453125 c 1,28,29
 70.146484375 324.64453125 70.146484375 324.64453125 30.6943359375 290.74609375 c 128,-1,30
 -8.7587890625 256.846679688 -8.7587890625 256.846679688 -15.8125 216.842773438 c 2,31,-1
 -25.1376953125 163.958007812 l 2,32,33
 -31.8505859375 125.887695312 -31.8505859375 125.887695312 -20.0625 93.7646484375 c 128,-1,34
 -8.275390625 61.6416015625 -8.275390625 61.6416015625 14.2294921875 42.796875 c 128,-1,35
 36.734375 23.9521484375 36.734375 23.9521484375 61.40234375 13.6123046875 c 128,-1,36
 86.0712890625 3.2724609375 86.0712890625 3.2724609375 107.215820312 3.2724609375 c 2,37,-1
 320.786132812 3.2724609375 l 2,0,1
126.224609375 111.07421875 m 2,38,39
 106.392578125 111.07421875 106.392578125 111.07421875 92.7802734375 127.600585938 c 128,-1,40
 79.16796875 144.126953125 79.16796875 144.126953125 82.6650390625 163.958007812 c 2,41,-1
 91.990234375 216.842773438 l 2,42,43
 95.4873046875 236.673828125 95.4873046875 236.673828125 114.926757812 253.200195312 c 128,-1,44
 134.3671875 269.7265625 134.3671875 269.7265625 154.19921875 269.7265625 c 2,45,-1
 367.76953125 269.7265625 l 2,46,47
 387.600585938 269.7265625 387.600585938 269.7265625 401.212890625 253.200195312 c 128,-1,48
 414.825195312 236.673828125 414.825195312 236.673828125 411.328125 216.842773438 c 2,49,-1
 402.002929688 163.958007812 l 2,50,51
 398.505859375 144.126953125 398.505859375 144.126953125 379.06640625 127.600585938 c 128,-1,52
 359.625976562 111.07421875 359.625976562 111.07421875 339.794921875 111.07421875 c 2,53,-1
 126.224609375 111.07421875 l 2,38,39
414.751953125 536.180664062 m 2,54,55
 434.583984375 536.180664062 434.583984375 536.180664062 448.196289062 519.654296875 c 128,-1,56
 461.807617188 503.12890625 461.807617188 503.12890625 458.311523438 483.296875 c 2,57,-1
 448.986328125 430.413085938 l 2,58,59
 445.489257812 410.581054688 445.489257812 410.581054688 426.049804688 394.0546875 c 128,-1,60
 406.609375 377.528320312 406.609375 377.528320312 386.77734375 377.528320312 c 2,61,-1
 173.20703125 377.528320312 l 2,62,63
 153.375976562 377.528320312 153.375976562 377.528320312 139.763671875 394.0546875 c 128,-1,64
 126.151367188 410.581054688 126.151367188 410.581054688 129.6484375 430.413085938 c 2,65,-1
 138.973632812 483.296875 l 2,66,67
 142.469726562 503.12890625 142.469726562 503.12890625 161.91015625 519.654296875 c 128,-1,68
 181.350585938 536.180664062 181.350585938 536.180664062 201.181640625 536.180664062 c 2,69,-1
 414.751953125 536.180664062 l 2,54,55
EndSplineSet
EndChar

StartChar: nine
Encoding: 57 57 15
Width: 602
VWidth: 1000
GlyphClass: 1
Flags: W
LayerCount: 2
Fore
SplineSet
387.975585938 378.696289062 m 2,0,1
 407.868164062 378.696289062 407.868164062 378.696289062 427.369140625 395.274414062 c 128,-1,2
 446.869140625 411.8515625 446.869140625 411.8515625 450.376953125 431.745117188 c 2,3,-1
 459.73046875 484.793945312 l 2,4,5
 463.23828125 504.6875 463.23828125 504.6875 449.583984375 521.264648438 c 128,-1,6
 435.9296875 537.841796875 435.9296875 537.841796875 416.037109375 537.841796875 c 2,7,-1
 201.801757812 537.841796875 l 2,8,9
 181.908203125 537.841796875 181.908203125 537.841796875 162.408203125 521.264648438 c 128,-1,10
 142.907226562 504.6875 142.907226562 504.6875 139.399414062 484.793945312 c 2,11,-1
 130.045898438 431.745117188 l 2,12,13
 119.841796875 373.874023438 119.841796875 373.874023438 173.740234375 378.696289062 c 1,14,-1
 387.975585938 378.696289062 l 2,0,1
154.671875 270.55859375 m 2,15,16
 133.461914062 270.55859375 133.461914062 270.55859375 108.716796875 280.930664062 c 128,-1,17
 83.9716796875 291.302734375 83.9716796875 291.302734375 61.3974609375 310.206054688 c 128,-1,18
 38.822265625 329.109375 38.822265625 329.109375 26.998046875 361.333007812 c 128,-1,19
 15.1748046875 393.555664062 15.1748046875 393.555664062 21.908203125 431.745117188 c 2,20,-1
 31.26171875 484.793945312 l 2,21,22
 37.99609375 522.983398438 37.99609375 522.983398438 61.18359375 555.206054688 c 128,-1,23
 84.37109375 587.428710938 84.37109375 587.428710938 113.612304688 606.33203125 c 128,-1,24
 142.852539062 625.235351562 142.852539062 625.235351562 171.255859375 635.607421875 c 128,-1,25
 199.659179688 645.979492188 199.659179688 645.979492188 220.869140625 645.979492188 c 2,26,-1
 435.104492188 645.979492188 l 2,27,28
 456.314453125 645.979492188 456.314453125 645.979492188 481.059570312 635.607421875 c 128,-1,29
 505.8046875 625.235351562 505.8046875 625.235351562 528.379882812 606.33203125 c 128,-1,30
 550.954101562 587.428710938 550.954101562 587.428710938 562.778320312 555.206054688 c 128,-1,31
 574.602539062 522.983398438 574.602539062 522.983398438 567.868164062 484.793945312 c 2,32,-1
 520.739257812 217.509765625 l 2,33,34
 510.512695312 159.512695312 510.512695312 159.512695312 484.748046875 116.443359375 c 128,-1,35
 458.982421875 73.3740234375 458.982421875 73.3740234375 423.407226562 49.5400390625 c 128,-1,36
 387.83203125 25.7060546875 387.83203125 25.7060546875 349.32421875 14.490234375 c 128,-1,37
 310.81640625 3.275390625 310.81640625 3.275390625 268.729492188 3.275390625 c 2,38,-1
 -53.642578125 3.275390625 l 1,39,-1
 -34.5751953125 111.413085938 l 1,40,-1
 287.796875 111.413085938 l 2,41,42
 327.583984375 111.413085938 327.583984375 111.413085938 366.584960938 144.568359375 c 128,-1,43
 405.5859375 177.723632812 405.5859375 177.723632812 412.6015625 217.509765625 c 2,44,-1
 421.955078125 270.55859375 l 1,45,-1
 154.671875 270.55859375 l 2,15,16
EndSplineSet
EndChar

StartChar: colon
Encoding: 58 58 16
Width: 168
VWidth: 1000
GlyphClass: 1
Flags: W
LayerCount: 2
Fore
SplineSet
17.888671875 3.607421875 m 0,0,1
 -4.599609375 3.607421875 -4.599609375 3.607421875 -17.794921875 19.1318359375 c 128,-1,2
 -30.990234375 34.65625 -30.990234375 34.65625 -27.236328125 55.94921875 c 0,3,4
 -23.2421875 78.59765625 -23.2421875 78.59765625 -4.59375 94.4501953125 c 128,-1,5
 14.0546875 110.303710938 14.0546875 110.303710938 36.7021484375 110.303710938 c 0,6,7
 57.99609375 110.303710938 57.99609375 110.303710938 70.7109375 94.37109375 c 128,-1,8
 83.42578125 78.4384765625 83.42578125 78.4384765625 79.4599609375 55.94921875 c 0,9,10
 75.7333984375 34.8115234375 75.7333984375 34.8115234375 57.3798828125 19.208984375 c 128,-1,11
 39.02734375 3.607421875 39.02734375 3.607421875 17.888671875 3.607421875 c 0,0,1
73.6201171875 319.670898438 m 0,12,13
 51.130859375 319.670898438 51.130859375 319.670898438 37.935546875 335.1953125 c 128,-1,14
 24.740234375 350.719726562 24.740234375 350.719726562 28.494140625 372.012695312 c 0,15,16
 32.48828125 394.66015625 32.48828125 394.66015625 51.13671875 410.513671875 c 128,-1,17
 69.78515625 426.3671875 69.78515625 426.3671875 92.43359375 426.3671875 c 0,18,19
 113.7265625 426.3671875 113.7265625 426.3671875 126.44140625 410.434570312 c 128,-1,20
 139.15625 394.500976562 139.15625 394.500976562 135.190429688 372.012695312 c 0,21,22
 131.463867188 350.874023438 131.463867188 350.874023438 113.110351562 335.272460938 c 128,-1,23
 94.7578125 319.670898438 94.7578125 319.670898438 73.6201171875 319.670898438 c 0,12,13
EndSplineSet
EndChar

StartChar: semicolon
Encoding: 59 59 17
Width: 164
VWidth: 1000
GlyphClass: 1
Flags: W
LayerCount: 2
Fore
SplineSet
83.9736328125 56.310546875 m 0,0,1
 72.029296875 -11.4326171875 72.029296875 -11.4326171875 54.7392578125 -44.4951171875 c 128,-1,2
 37.4501953125 -77.5576171875 37.4501953125 -77.5576171875 8.703125 -89.9736328125 c 128,-1,3
 -20.04296875 -102.389648438 -20.04296875 -102.389648438 -74.5849609375 -102.389648438 c 1,4,5
 -70.7119140625 -80.4228515625 -70.7119140625 -80.4228515625 -60.9970703125 -71.091796875 c 128,-1,6
 -51.283203125 -61.7607421875 -51.283203125 -61.7607421875 -39.53515625 -60.4521484375 c 128,-1,7
 -27.787109375 -59.14453125 -27.787109375 -59.14453125 -15.8330078125 -56.66015625 c 128,-1,8
 -3.8779296875 -54.1767578125 -3.8779296875 -54.1767578125 6.734375 -39.7529296875 c 128,-1,9
 17.34765625 -25.330078125 17.34765625 -25.330078125 22.5341796875 4.080078125 c 1,10,11
 -0.0654296875 4.080078125 -0.0654296875 4.080078125 -12.2685546875 18.8955078125 c 128,-1,12
 -24.4716796875 33.7109375 -24.4716796875 33.7109375 -20.4873046875 56.310546875 c 0,13,14
 -16.7060546875 77.755859375 -16.7060546875 77.755859375 0.99609375 93.1484375 c 128,-1,15
 18.6962890625 108.541015625 18.6962890625 108.541015625 40.953125 108.541015625 c 0,16,17
 62.0458984375 108.541015625 62.0458984375 108.541015625 74.869140625 92.9716796875 c 128,-1,18
 87.693359375 77.4033203125 87.693359375 77.4033203125 83.9736328125 56.310546875 c 0,0,1
78.1455078125 319.471679688 m 0,19,20
 55.888671875 319.471679688 55.888671875 319.471679688 43.6162109375 334.86328125 c 128,-1,21
 31.34375 350.255859375 31.34375 350.255859375 35.125 371.702148438 c 0,22,23
 39.1455078125 394.504882812 39.1455078125 394.504882812 56.828125 410.22265625 c 128,-1,24
 74.51171875 425.94140625 74.51171875 425.94140625 96.9189453125 425.94140625 c 0,25,26
 118.166015625 425.94140625 118.166015625 425.94140625 130.854492188 410.041992188 c 128,-1,27
 143.54296875 394.142578125 143.54296875 394.142578125 139.5859375 371.702148438 c 0,28,29
 135.866210938 350.608398438 135.866210938 350.608398438 117.551757812 335.040039062 c 128,-1,30
 99.23828125 319.471679688 99.23828125 319.471679688 78.1455078125 319.471679688 c 0,19,20
EndSplineSet
EndChar

StartChar: equal
Encoding: 61 61 18
Width: 434
VWidth: 1000
GlyphClass: 1
Flags: W
LayerCount: 2
Fore
SplineSet
28.5830078125 99.7890625 m 2,0,1
 5.7314453125 99.7890625 5.7314453125 99.7890625 -7.3857421875 114.732421875 c 128,-1,2
 -20.501953125 129.676757812 -20.501953125 129.676757812 -16.5419921875 152.130859375 c 0,3,4
 -12.7880859375 173.423828125 -12.7880859375 173.423828125 5.8828125 188.948242188 c 128,-1,5
 24.552734375 204.47265625 24.552734375 204.47265625 47.0419921875 204.47265625 c 2,6,-1
 310.763671875 204.47265625 l 2,7,8
 331.901367188 204.47265625 331.901367188 204.47265625 344.751953125 188.87109375 c 128,-1,9
 357.602539062 173.268554688 357.602539062 173.268554688 353.875976562 152.130859375 c 0,10,11
 349.943359375 129.827148438 349.943359375 129.827148438 331.870117188 114.80859375 c 128,-1,12
 313.796875 99.7890625 313.796875 99.7890625 292.3046875 99.7890625 c 2,13,-1
 28.5830078125 99.7890625 l 2,0,1
65.5 309.15625 m 2,14,15
 43.0107421875 309.15625 43.0107421875 309.15625 29.8154296875 324.680664062 c 128,-1,16
 16.6201171875 340.205078125 16.6201171875 340.205078125 20.375 361.498046875 c 0,17,18
 24.3681640625 384.145507812 24.3681640625 384.145507812 43.0166015625 399.999023438 c 128,-1,19
 61.666015625 415.852539062 61.666015625 415.852539062 84.3134765625 415.852539062 c 2,20,-1
 348.03515625 415.852539062 l 2,21,22
 369.328125 415.852539062 369.328125 415.852539062 382.04296875 399.919921875 c 128,-1,23
 394.7578125 383.986328125 394.7578125 383.986328125 390.79296875 361.498046875 c 0,24,25
 387.065429688 340.359375 387.065429688 340.359375 368.712890625 324.7578125 c 128,-1,26
 350.360351562 309.15625 350.360351562 309.15625 329.221679688 309.15625 c 2,27,-1
 65.5 309.15625 l 2,14,15
EndSplineSet
EndChar

StartChar: A
Encoding: 65 65 19
Width: 597
VWidth: 1000
GlyphClass: 1
Flags: W
LayerCount: 2
Fore
SplineSet
136.373046875 217.208007812 m 1,0,-1
 67.9541015625 82.9638671875 l 1,1,-1
 53.966796875 3.6376953125 l 1,2,-1
 -53.8349609375 3.6376953125 l 1,3,-1
 -44.509765625 56.521484375 l 1,4,-1
 260.505859375 644.34765625 l 1,5,-1
 392.715820312 644.34765625 l 1,6,-1
 490.432617188 56.521484375 l 1,7,-1
 481.107421875 3.6376953125 l 1,8,-1
 373.3046875 3.6376953125 l 1,9,-1
 387.291992188 82.9638671875 l 1,10,-1
 366.21484375 217.208007812 l 1,11,-1
 136.373046875 217.208007812 l 1,0,-1
189.959960938 325.009765625 m 1,12,-1
 350.645507812 325.009765625 l 1,13,-1
 325.736328125 483.662109375 l 1,14,-1
 268.784179688 483.662109375 l 1,15,-1
 189.959960938 325.009765625 l 1,12,-1
EndSplineSet
EndChar

StartChar: B
Encoding: 66 66 20
Width: 600
VWidth: 1000
GlyphClass: 1
Flags: W
LayerCount: 2
Fore
SplineSet
59.50390625 643.983398438 m 1,0,-1
 -53.470703125 3.2734375 l 1,1,-1
 267.904296875 3.2734375 l 2,2,3
 385.145507812 3.2734375 385.145507812 3.2734375 440.115234375 41.8779296875 c 128,-1,4
 495.084960938 80.4814453125 495.084960938 80.4814453125 509.803710938 163.958007812 c 0,5,6
 515.330078125 195.297851562 515.330078125 195.297851562 515.46484375 218.067382812 c 128,-1,7
 515.599609375 240.8359375 515.599609375 240.8359375 513.654296875 254.587890625 c 128,-1,8
 511.709960938 268.340820312 511.709960938 268.340820312 500.9921875 282.340820312 c 128,-1,9
 490.275390625 296.341796875 490.275390625 296.341796875 483.161132812 302.752929688 c 128,-1,10
 476.047851562 309.1640625 476.047851562 309.1640625 456.780273438 324.642578125 c 1,11,12
 486.108398438 342.138671875 486.108398438 342.138671875 498.208007812 350.76171875 c 128,-1,13
 510.307617188 359.385742188 510.307617188 359.385742188 526.392578125 377.280273438 c 128,-1,14
 542.478515625 395.173828125 542.478515625 395.173828125 550.8671875 419.79296875 c 128,-1,15
 559.255859375 444.412109375 559.255859375 444.412109375 566.112304688 483.297851562 c 0,16,17
 575.180664062 534.7265625 575.180664062 534.7265625 549.908203125 572.260742188 c 128,-1,18
 524.63671875 609.794921875 524.63671875 609.794921875 480.267578125 626.888671875 c 128,-1,19
 435.897460938 643.983398438 435.897460938 643.983398438 380.87890625 643.983398438 c 2,20,-1
 59.50390625 643.983398438 l 1,0,-1
148.298828125 536.1796875 m 1,21,-1
 361.870117188 536.1796875 l 2,22,23
 404.838867188 536.1796875 404.838867188 536.1796875 432.547851562 515.24609375 c 128,-1,24
 460.255859375 494.3125 460.255859375 494.3125 453.651367188 456.852539062 c 128,-1,25
 447.045898438 419.392578125 447.045898438 419.392578125 411.956054688 398.4609375 c 128,-1,26
 376.865234375 377.529296875 376.865234375 377.529296875 333.895507812 377.529296875 c 2,27,-1
 120.32421875 377.529296875 l 1,28,-1
 148.298828125 536.1796875 l 1,21,-1
101.31640625 269.7265625 m 1,29,-1
 314.887695312 269.7265625 l 2,30,31
 357.85546875 269.7265625 357.85546875 269.7265625 385.564453125 248.79296875 c 128,-1,32
 413.2734375 227.858398438 413.2734375 227.858398438 406.66796875 190.3984375 c 128,-1,33
 400.063476562 152.938476562 400.063476562 152.938476562 364.971679688 132.004882812 c 128,-1,34
 329.880859375 111.071289062 329.880859375 111.071289062 286.912109375 111.071289062 c 2,35,-1
 73.3408203125 111.071289062 l 1,36,-1
 101.31640625 269.7265625 l 1,29,-1
EndSplineSet
EndChar

StartChar: C
Encoding: 67 67 21
Width: 597
VWidth: 1000
GlyphClass: 1
Flags: W
LayerCount: 2
Fore
SplineSet
-18.462890625 216.673828125 m 2,0,-1
 19.2646484375 430.63671875 l 2,1,2
 26.7314453125 472.983398438 26.7314453125 472.983398438 44.4462890625 509.572265625 c 128,-1,3
 62.1611328125 546.161132812 62.1611328125 546.161132812 91.54296875 577.364257812 c 128,-1,4
 120.924804688 608.567382812 120.924804688 608.567382812 167.044921875 626.583007812 c 128,-1,5
 213.165039062 644.598632812 213.165039062 644.598632812 270.954101562 644.598632812 c 2,6,-1
 431.424804688 644.598632812 l 2,7,8
 469.155273438 644.598632812 469.155273438 644.598632812 492.893554688 634.4296875 c 128,-1,9
 516.631835938 624.260742188 516.631835938 624.260742188 525.419921875 612.142578125 c 128,-1,10
 534.208007812 600.0234375 534.208007812 600.0234375 547.768554688 575.924804688 c 128,-1,11
 561.330078125 551.826171875 561.330078125 551.826171875 573.033203125 537.618164062 c 1,12,-1
 252.090820312 537.618164062 l 2,13,14
 211.971679688 537.618164062 211.971679688 537.618164062 172.645507812 504.186523438 c 128,-1,15
 133.319335938 470.754882812 133.319335938 470.754882812 126.245117188 430.63671875 c 2,16,-1
 88.517578125 216.673828125 l 2,17,18
 81.4443359375 176.555664062 81.4443359375 176.555664062 108.98046875 143.124023438 c 128,-1,19
 136.517578125 109.693359375 136.517578125 109.693359375 176.635742188 109.693359375 c 2,20,-1
 497.578125 109.693359375 l 1,21,22
 480.864257812 95.4853515625 480.864257812 95.4853515625 458.805664062 71.38671875 c 128,-1,23
 436.74609375 47.2890625 436.74609375 47.2890625 423.68359375 35.169921875 c 128,-1,24
 410.622070312 23.05078125 410.622070312 23.05078125 383.297851562 12.8828125 c 128,-1,25
 355.973632812 2.7138671875 355.973632812 2.7138671875 318.243164062 2.7138671875 c 2,26,-1
 157.772460938 2.7138671875 l 2,27,28
 99.9833984375 2.7138671875 99.9833984375 2.7138671875 60.216796875 20.7294921875 c 128,-1,29
 20.44921875 38.7451171875 20.44921875 38.7451171875 2.072265625 69.947265625 c 128,-1,30
 -16.3056640625 101.150390625 -16.3056640625 101.150390625 -21.1181640625 137.73828125 c 128,-1,31
 -25.9296875 174.327148438 -25.9296875 174.327148438 -18.462890625 216.673828125 c 2,0,-1
EndSplineSet
EndChar

StartChar: D
Encoding: 68 68 22
Width: 599
VWidth: 1000
GlyphClass: 1
Flags: W
LayerCount: 2
Fore
SplineSet
148.297851562 536.180664062 m 1,0,-1
 73.3408203125 111.07421875 l 1,1,-1
 313.352539062 111.07421875 l 2,2,3
 392.6796875 111.07421875 392.6796875 111.07421875 406.666015625 190.400390625 c 2,4,-1
 439.661132812 377.528320312 l 2,5,6
 467.635742188 536.181640625 467.635742188 536.181640625 308.983398438 536.180664062 c 2,7,-1
 148.297851562 536.180664062 l 1,0,-1
273.07421875 643.983398438 m 2,8,9
 354.094726562 643.983398438 354.094726562 643.983398438 421.444335938 611.145507812 c 128,-1,10
 488.793945312 578.307617188 488.793945312 578.307617188 524.868164062 516.134765625 c 128,-1,11
 560.94140625 453.961914062 560.94140625 453.961914062 547.463867188 377.528320312 c 2,12,-1
 519.130859375 216.842773438 l 2,13,14
 497.880859375 96.328125 497.880859375 96.328125 443.1484375 49.7998046875 c 128,-1,15
 388.416992188 3.2724609375 388.416992188 3.2724609375 267.90234375 3.2724609375 c 2,16,-1
 -53.470703125 3.2724609375 l 1,17,-1
 59.50390625 643.983398438 l 1,18,-1
 273.07421875 643.983398438 l 2,8,9
EndSplineSet
EndChar

StartChar: E
Encoding: 69 69 23
Width: 597
VWidth: 1000
GlyphClass: 1
Flags: W
LayerCount: 2
Fore
SplineSet
-56.189453125 2.7138671875 m 1,0,-1
 56.9921875 644.598632812 l 1,1,-1
 591.896484375 644.598632812 l 1,2,-1
 573.033203125 537.618164062 l 1,3,-1
 145.109375 537.618164062 l 1,4,-1
 116.813476562 377.146484375 l 1,5,-1
 544.737304688 377.146484375 l 1,6,-1
 525.874023438 270.165039062 l 1,7,-1
 97.9501953125 270.165039062 l 1,8,-1
 69.654296875 109.693359375 l 1,9,-1
 497.578125 109.693359375 l 1,10,-1
 478.71484375 2.7138671875 l 1,11,-1
 -56.189453125 2.7138671875 l 1,0,-1
EndSplineSet
EndChar

StartChar: F
Encoding: 70 70 24
Width: 544
VWidth: 1000
GlyphClass: 1
Flags: W
LayerCount: 2
Fore
SplineSet
-55.4765625 2.255859375 m 2,0,-1
 51.990234375 2.255859375 l 2,1,2
 53.00390625 2.255859375 53.00390625 2.255859375 53.1826171875 3.26953125 c 2,3,-1
 99.8408203125 267.880859375 l 1,4,-1
 471.918945312 267.880859375 l 2,5,6
 472.932617188 267.880859375 472.932617188 267.880859375 473.111328125 268.89453125 c 2,7,-1
 492.060546875 376.361328125 l 2,8,9
 492.239257812 377.375 492.239257812 377.375 491.225585938 377.375 c 2,10,-1
 119.147460938 377.375 l 1,11,-1
 146.677734375 533.505859375 l 1,12,-1
 518.755859375 533.505859375 l 2,13,14
 519.76953125 533.505859375 519.76953125 533.505859375 519.948242188 534.51953125 c 2,15,-1
 538.897460938 641.986328125 l 2,16,17
 539.076171875 643 539.076171875 643 538.0625 643 c 2,18,-1
 57.50390625 643 l 2,19,20
 56.490234375 643 56.490234375 643 56.3115234375 641.986328125 c 2,21,-1
 -56.3115234375 3.26953125 l 2,22,23
 -56.490234375 2.255859375 -56.490234375 2.255859375 -55.4765625 2.255859375 c 2,0,-1
51.333984375 4.283203125 m 1,24,-1
 -54.10546875 4.283203125 l 1,25,-1
 58.16015625 640.97265625 l 1,26,-1
 536.69140625 640.97265625 l 1,27,-1
 518.099609375 535.533203125 l 1,28,-1
 146.021484375 535.533203125 l 2,29,30
 145.0078125 535.533203125 145.0078125 535.533203125 144.829101562 534.51953125 c 2,31,-1
 116.94140625 376.361328125 l 2,32,33
 116.762695312 375.34765625 116.762695312 375.34765625 117.776367188 375.34765625 c 2,34,-1
 489.854492188 375.34765625 l 1,35,-1
 471.262695312 269.908203125 l 1,36,-1
 99.1845703125 269.908203125 l 2,37,38
 98.1708984375 269.908203125 98.1708984375 269.908203125 97.9921875 268.89453125 c 2,39,-1
 51.333984375 4.283203125 l 1,24,-1
-55.2978515625 3.26953125 m 1,40,-1
 57.3251953125 641.986328125 l 1,41,-1
 537.883789062 641.986328125 l 1,42,-1
 518.934570312 534.51953125 l 1,43,-1
 145.842773438 534.51953125 l 1,44,-1
 117.955078125 376.361328125 l 1,45,-1
 491.046875 376.361328125 l 1,46,-1
 472.09765625 268.89453125 l 1,47,-1
 99.005859375 268.89453125 l 1,48,-1
 52.1689453125 3.26953125 l 1,49,-1
 -55.2978515625 3.26953125 l 1,40,-1
EndSplineSet
EndChar

StartChar: G
Encoding: 71 71 25
Width: 597
VWidth: 1000
GlyphClass: 1
Flags: W
LayerCount: 2
Fore
SplineSet
-18.462890625 216.673828125 m 2,0,-1
 19.2646484375 430.63671875 l 2,1,2
 26.7314453125 472.983398438 26.7314453125 472.983398438 44.4462890625 509.572265625 c 128,-1,3
 62.1611328125 546.161132812 62.1611328125 546.161132812 91.54296875 577.364257812 c 128,-1,4
 120.924804688 608.567382812 120.924804688 608.567382812 167.044921875 626.583007812 c 128,-1,5
 213.165039062 644.598632812 213.165039062 644.598632812 270.954101562 644.598632812 c 2,6,-1
 591.896484375 644.598632812 l 1,7,-1
 573.033203125 537.618164062 l 1,8,-1
 225.345703125 537.618164062 l 2,9,10
 145.108398438 537.618164062 145.108398438 537.618164062 130.9609375 457.381835938 c 2,11,-1
 83.8017578125 189.928710938 l 2,12,13
 69.654296875 109.69140625 69.654296875 109.69140625 149.890625 109.693359375 c 2,14,-1
 310.360351562 109.693359375 l 2,15,16
 390.59765625 109.693359375 390.59765625 109.693359375 404.744140625 189.928710938 c 2,17,-1
 418.892578125 270.165039062 l 1,18,-1
 258.421875 270.165039062 l 1,19,-1
 277.28515625 377.146484375 l 1,20,-1
 544.737304688 377.146484375 l 1,21,-1
 507.009765625 163.184570312 l 2,22,23
 478.71484375 2.7138671875 478.71484375 2.7138671875 318.243164062 2.7138671875 c 2,24,-1
 157.772460938 2.7138671875 l 2,25,26
 37.4189453125 2.7138671875 37.4189453125 2.7138671875 -1.1328125 49.517578125 c 128,-1,27
 -39.68359375 96.3212890625 -39.68359375 96.3212890625 -18.462890625 216.673828125 c 2,0,-1
EndSplineSet
EndChar

StartChar: I
Encoding: 73 73 26
Width: 172
VWidth: 1000
GlyphClass: 1
Flags: W
LayerCount: 2
Fore
SplineSet
52.791015625 3.7138671875 m 1,0,-1
 -54.189453125 3.7138671875 l 1,1,-1
 58.9921875 645.598632812 l 1,2,-1
 165.97265625 645.598632812 l 1,3,-1
 52.791015625 3.7138671875 l 1,0,-1
EndSplineSet
EndChar

StartChar: J
Encoding: 74 74 27
Width: 487
VWidth: 1000
GlyphClass: 1
Flags: W
LayerCount: 2
Fore
SplineSet
-56.189453125 3.7138671875 m 1,0,-1
 -37.326171875 110.693359375 l 1,1,-1
 176.635742188 110.693359375 l 2,2,3
 216.752929688 110.693359375 216.752929688 110.693359375 256.080078125 144.125 c 128,-1,4
 295.40625 177.556640625 295.40625 177.556640625 302.479492188 217.673828125 c 2,5,-1
 359.071289062 538.618164062 l 1,6,-1
 305.581054688 538.618164062 l 1,7,-1
 324.444335938 645.598632812 l 1,8,-1
 484.915039062 645.598632812 l 1,9,-1
 418.892578125 271.165039062 l 2,10,11
 408.782226562 213.830078125 408.782226562 213.830078125 373.036132812 162.150390625 c 128,-1,12
 337.290039062 110.470703125 337.290039062 110.470703125 290.899414062 76.7890625 c 128,-1,13
 244.5078125 43.1064453125 244.5078125 43.1064453125 194.788085938 23.41015625 c 128,-1,14
 145.068359375 3.7138671875 145.068359375 3.7138671875 104.28125 3.7138671875 c 2,15,-1
 -56.189453125 3.7138671875 l 1,0,-1
EndSplineSet
EndChar

StartChar: K
Encoding: 75 75 28
Width: 544
VWidth: 1000
GlyphClass: 1
Flags: W
LayerCount: 2
Fore
SplineSet
-56.189453125 3.7138671875 m 1,0,-1
 56.9921875 645.598632812 l 1,1,-1
 163.97265625 645.598632812 l 1,2,-1
 116.813476562 378.146484375 l 1,3,-1
 431.424804688 645.598632812 l 1,4,-1
 538.40625 645.598632812 l 1,5,-1
 223.794921875 378.146484375 l 1,6,-1
 277.28515625 378.146484375 l 2,7,8
 357.520507812 378.146484375 357.520507812 378.146484375 412.59375 311.283203125 c 128,-1,9
 467.66796875 244.419921875 467.66796875 244.419921875 453.51953125 164.184570312 c 2,10,-1
 425.224609375 3.7138671875 l 1,11,-1
 318.243164062 3.7138671875 l 1,12,-1
 346.538085938 164.184570312 l 2,13,14
 353.612304688 204.301757812 353.612304688 204.301757812 326.075195312 237.733398438 c 128,-1,15
 298.5390625 271.165039062 298.5390625 271.165039062 258.421875 271.165039062 c 2,16,-1
 97.9501953125 271.165039062 l 1,17,-1
 50.791015625 3.7138671875 l 1,18,-1
 -56.189453125 3.7138671875 l 1,0,-1
EndSplineSet
EndChar

StartChar: L
Encoding: 76 76 29
Width: 489
VWidth: 1000
GlyphClass: 1
Flags: W
LayerCount: 2
Fore
SplineSet
-56.189453125 3.7138671875 m 1,0,-1
 56.9921875 645.598632812 l 1,1,-1
 163.97265625 645.598632812 l 1,2,-1
 69.654296875 110.693359375 l 1,3,-1
 390.596679688 110.693359375 l 1,4,-1
 371.733398438 3.7138671875 l 1,5,-1
 -56.189453125 3.7138671875 l 1,0,-1
EndSplineSet
EndChar

StartChar: M
Encoding: 77 77 30
Width: 652
VWidth: 1000
GlyphClass: 1
Flags: W
LayerCount: 2
Fore
SplineSet
52.791015625 2.7138671875 m 1,0,-1
 -54.189453125 2.7138671875 l 1,1,-1
 58.9921875 644.598632812 l 1,2,-1
 165.97265625 644.598632812 l 1,3,-1
 277.733398438 216.673828125 l 1,4,-1
 540.40625 644.598632812 l 1,5,-1
 647.38671875 644.598632812 l 1,6,-1
 534.205078125 2.7138671875 l 1,7,-1
 427.224609375 2.7138671875 l 1,8,-1
 502.678710938 430.63671875 l 1,9,-1
 249.439453125 56.2041015625 l 1,10,-1
 128.245117188 430.63671875 l 1,11,-1
 52.791015625 2.7138671875 l 1,0,-1
EndSplineSet
EndChar

StartChar: N
Encoding: 78 78 31
Width: 597
VWidth: 1000
GlyphClass: 1
Flags: W
LayerCount: 2
Fore
SplineSet
145.266601562 538.198242188 m 1,0,-1
 50.845703125 2.7138671875 l 1,1,-1
 -56.2509765625 2.7138671875 l 1,2,-1
 57.0537109375 645.294921875 l 1,3,-1
 324.795898438 645.294921875 l 2,4,5
 382.193359375 645.294921875 382.193359375 645.294921875 429.227539062 618.6328125 c 128,-1,6
 476.26171875 591.969726562 476.26171875 591.969726562 502.83984375 551.473632812 c 128,-1,7
 529.41796875 510.977539062 529.41796875 510.977539062 540.97265625 464.680664062 c 128,-1,8
 552.52734375 418.383789062 552.52734375 418.383789062 545.328125 377.552734375 c 2,9,-1
 479.233398438 2.7138671875 l 1,10,-1
 372.13671875 2.7138671875 l 1,11,-1
 442.952148438 404.327148438 l 2,12,13
 452.754882812 448.573242188 452.754882812 448.573242188 420.939453125 493.385742188 c 128,-1,14
 389.123046875 538.198242188 389.123046875 538.198242188 332.686523438 538.198242188 c 2,15,-1
 145.266601562 538.198242188 l 1,0,-1
EndSplineSet
EndChar

StartChar: O
Encoding: 79 79 32
Width: 547
VWidth: 1000
GlyphClass: 1
Flags: W
LayerCount: 2
Fore
SplineSet
-16.8125 216.842773438 m 2,0,1
 -27.0068359375 159.025390625 -27.0068359375 159.025390625 -16.4638671875 116.08984375 c 128,-1,2
 -5.919921875 73.1533203125 -5.919921875 73.1533203125 21.166015625 49.3935546875 c 128,-1,3
 48.251953125 25.6337890625 48.251953125 25.6337890625 82.6982421875 14.453125 c 128,-1,4
 117.143554688 3.2724609375 117.143554688 3.2724609375 159.099609375 3.2724609375 c 2,5,-1
 214.017578125 3.2724609375 l 2,6,7
 255.973632812 3.2724609375 255.973632812 3.2724609375 294.362304688 14.453125 c 128,-1,8
 332.750976562 25.6337890625 332.750976562 25.6337890625 368.215820312 49.3935546875 c 128,-1,9
 403.680664062 73.1533203125 403.680664062 73.1533203125 429.366210938 116.08984375 c 128,-1,10
 455.051757812 159.025390625 455.051757812 159.025390625 465.24609375 216.842773438 c 2,11,-1
 502.904296875 430.413085938 l 2,12,13
 513.098632812 488.23046875 513.098632812 488.23046875 502.555664062 531.166015625 c 128,-1,14
 492.01171875 574.1015625 492.01171875 574.1015625 464.92578125 597.862304688 c 128,-1,15
 437.840820312 621.622070312 437.840820312 621.622070312 403.39453125 632.802734375 c 128,-1,16
 368.948242188 643.983398438 368.948242188 643.983398438 326.9921875 643.983398438 c 2,17,-1
 272.07421875 643.983398438 l 2,18,19
 230.118164062 643.983398438 230.118164062 643.983398438 191.729492188 632.802734375 c 128,-1,20
 153.340820312 621.622070312 153.340820312 621.622070312 117.875976562 597.862304688 c 128,-1,21
 82.4111328125 574.1015625 82.4111328125 574.1015625 56.7255859375 531.166015625 c 128,-1,22
 31.0400390625 488.23046875 31.0400390625 488.23046875 20.845703125 430.413085938 c 2,23,-1
 -16.8125 216.842773438 l 2,0,1
128.6484375 430.413085938 m 2,24,25
 135.641601562 470.076171875 135.641601562 470.076171875 174.522460938 503.127929688 c 128,-1,26
 213.403320312 536.180664062 213.403320312 536.180664062 253.065429688 536.180664062 c 2,27,-1
 307.983398438 536.180664062 l 2,28,29
 347.647460938 536.180664062 347.647460938 536.180664062 374.872070312 503.127929688 c 128,-1,30
 402.095703125 470.076171875 402.095703125 470.076171875 395.102539062 430.413085938 c 2,31,-1
 357.444335938 216.842773438 l 2,32,33
 350.450195312 177.1796875 350.450195312 177.1796875 311.5703125 144.126953125 c 128,-1,34
 272.689453125 111.07421875 272.689453125 111.07421875 233.026367188 111.07421875 c 2,35,-1
 178.108398438 111.07421875 l 2,36,37
 138.4453125 111.07421875 138.4453125 111.07421875 111.220703125 144.126953125 c 128,-1,38
 83.99609375 177.1796875 83.99609375 177.1796875 90.990234375 216.842773438 c 2,39,-1
 128.6484375 430.413085938 l 2,24,25
EndSplineSet
EndChar

StartChar: P
Encoding: 80 80 33
Width: 601
VWidth: 1000
GlyphClass: 1
Flags: W
LayerCount: 2
Fore
SplineSet
387.108398438 535.51953125 m 2,0,1
 466.1875 535.51953125 466.1875 535.51953125 452.243164062 456.440429688 c 2,2,-1
 442.947265625 403.720703125 l 2,3,4
 429.00390625 324.640625 429.00390625 324.640625 349.924804688 324.641601562 c 2,5,-1
 110.659179688 324.641601562 l 1,6,-1
 147.842773438 535.51953125 l 1,7,-1
 387.108398438 535.51953125 l 2,0,1
59.3251953125 642.986328125 m 1,8,-1
 -53.2978515625 4.26953125 l 1,9,-1
 54.1689453125 4.26953125 l 1,10,-1
 91.7099609375 217.174804688 l 1,11,-1
 357.334960938 217.174804688 l 2,12,13
 517.521484375 217.174804688 517.521484375 217.174804688 545.766601562 377.361328125 c 2,14,-1
 555.0625 430.080078125 l 2,15,16
 562.4375 471.90625 562.4375 471.90625 557.693359375 508.209960938 c 128,-1,17
 552.948242188 544.513671875 552.948242188 544.513671875 534.759765625 575.692382812 c 128,-1,18
 516.571289062 606.870117188 516.571289062 606.870117188 476.953125 624.927734375 c 128,-1,19
 437.334960938 642.986328125 437.334960938 642.986328125 379.697265625 642.986328125 c 2,20,-1
 59.3251953125 642.986328125 l 1,8,-1
EndSplineSet
EndChar

StartChar: Q
Encoding: 81 81 34
Width: 544
VWidth: 1000
GlyphClass: 1
Flags: W
LayerCount: 2
Fore
SplineSet
356.990234375 218.209960938 m 2,0,-1
 394.704101562 432.095703125 l 2,1,2
 401.787109375 472.266601562 401.787109375 472.266601562 374.288085938 505.65234375 c 128,-1,3
 346.7890625 539.038085938 346.7890625 539.038085938 306.6171875 539.038085938 c 2,4,-1
 251.618164062 539.038085938 l 2,5,6
 211.447265625 539.038085938 211.447265625 539.038085938 172.174804688 505.65234375 c 128,-1,7
 132.90234375 472.266601562 132.90234375 472.266601562 125.819335938 432.095703125 c 2,8,-1
 88.10546875 218.209960938 l 2,9,10
 82.1787109375 184.598632812 82.1787109375 184.598632812 100.592773438 154.674804688 c 128,-1,11
 119.0078125 124.750976562 119.0078125 124.750976562 150.155273438 115.379882812 c 0,12,13
 151.388671875 115.009765625 151.388671875 115.009765625 151.626953125 116.359375 c 2,14,-1
 169.40625 217.19140625 l 1,15,-1
 275.330078125 217.19140625 l 1,16,-1
 257.55078125 116.359375 l 2,17,18
 257.301757812 114.947265625 257.301757812 114.947265625 258.719726562 115.392578125 c 0,19,20
 293.845703125 126.451171875 293.845703125 126.451171875 322.485351562 155.698242188 c 128,-1,21
 351.124023438 184.944335938 351.124023438 184.944335938 356.990234375 218.209960938 c 2,0,-1
212.51171875 5.341796875 m 2,22,-1
 157.512695312 5.341796875 l 2,23,24
 115.630859375 5.341796875 115.630859375 5.341796875 81.2939453125 16.46875 c 128,-1,25
 46.958984375 27.595703125 46.958984375 27.595703125 19.970703125 51.2685546875 c 128,-1,26
 -7.017578125 74.94140625 -7.017578125 74.94140625 -17.5029296875 117.73828125 c 128,-1,27
 -27.9892578125 160.536132812 -27.9892578125 160.536132812 -17.8193359375 218.209960938 c 2,28,-1
 19.89453125 432.095703125 l 2,29,30
 30.0634765625 489.76953125 30.0634765625 489.76953125 55.642578125 532.567382812 c 128,-1,31
 81.220703125 575.364257812 81.220703125 575.364257812 116.556640625 599.037109375 c 128,-1,32
 151.893554688 622.709960938 151.893554688 622.709960938 190.153320312 633.8359375 c 128,-1,33
 228.4140625 644.962890625 228.4140625 644.962890625 270.295898438 644.962890625 c 2,34,-1
 325.294921875 644.962890625 l 2,35,36
 367.177734375 644.962890625 367.177734375 644.962890625 401.513671875 633.8359375 c 128,-1,37
 435.849609375 622.709960938 435.849609375 622.709960938 462.836914062 599.037109375 c 128,-1,38
 489.826171875 575.364257812 489.826171875 575.364257812 500.3125 532.567382812 c 128,-1,39
 510.797851562 489.76953125 510.797851562 489.76953125 500.62890625 432.095703125 c 2,40,-1
 462.915039062 218.209960938 l 2,41,42
 452.745117188 160.536132812 452.745117188 160.536132812 427.166992188 117.73828125 c 128,-1,43
 401.587890625 74.94140625 401.587890625 74.94140625 366.250976562 51.2685546875 c 128,-1,44
 330.915039062 27.595703125 330.915039062 27.595703125 292.654296875 16.46875 c 128,-1,45
 254.39453125 5.341796875 254.39453125 5.341796875 212.51171875 5.341796875 c 2,22,-1
212.153320312 3.3046875 m 2,46,47
 254.307617188 3.3046875 254.307617188 3.3046875 292.938476562 14.572265625 c 128,-1,48
 331.568359375 25.83984375 331.568359375 25.83984375 367.267578125 49.7578125 c 128,-1,49
 402.965820312 73.67578125 402.965820312 73.67578125 428.833984375 116.876953125 c 128,-1,50
 454.701171875 160.078125 454.701171875 160.078125 464.952148438 218.209960938 c 2,51,-1
 502.666015625 432.095703125 l 2,52,53
 512.916015625 490.227539062 512.916015625 490.227539062 502.283203125 533.428710938 c 128,-1,54
 491.649414062 576.629882812 491.649414062 576.629882812 464.38671875 600.547851562 c 128,-1,55
 437.123046875 624.465820312 437.123046875 624.465820312 402.465820312 635.732421875 c 128,-1,56
 367.807617188 647 367.807617188 647 325.653320312 647 c 2,57,-1
 270.654296875 647 l 2,58,59
 228.500976562 647 228.500976562 647 189.870117188 635.732421875 c 128,-1,60
 151.239257812 624.465820312 151.239257812 624.465820312 115.541015625 600.547851562 c 128,-1,61
 79.8427734375 576.629882812 79.8427734375 576.629882812 53.974609375 533.428710938 c 128,-1,62
 28.107421875 490.227539062 28.107421875 490.227539062 17.857421875 432.095703125 c 2,63,-1
 -19.8564453125 218.209960938 l 2,64,65
 -30.107421875 160.078125 -30.107421875 160.078125 -19.474609375 116.876953125 c 128,-1,66
 -8.8408203125 73.67578125 -8.8408203125 73.67578125 18.421875 49.7578125 c 128,-1,67
 45.6845703125 25.83984375 45.6845703125 25.83984375 80.3427734375 14.572265625 c 128,-1,68
 115.000976562 3.3046875 115.000976562 3.3046875 157.154296875 3.3046875 c 2,69,-1
 212.153320312 3.3046875 l 2,46,47
90.142578125 218.209960938 m 2,70,-1
 127.856445312 432.095703125 l 2,71,72
 134.780273438 471.3671875 134.780273438 471.3671875 173.383789062 504.184570312 c 128,-1,73
 211.987304688 537.000976562 211.987304688 537.000976562 251.258789062 537.000976562 c 2,74,-1
 306.2578125 537.000976562 l 2,75,76
 345.530273438 537.000976562 345.530273438 537.000976562 372.560546875 504.184570312 c 128,-1,77
 399.590820312 471.3671875 399.590820312 471.3671875 392.666992188 432.095703125 c 2,78,-1
 354.953125 218.209960938 l 2,79,80
 349.283203125 186.057617188 349.283203125 186.057617188 321.624023438 157.521484375 c 128,-1,81
 293.963867188 128.985351562 293.963867188 128.985351562 259.838867188 117.783203125 c 1,82,-1
 277.546875 218.209960938 l 2,83,84
 277.7265625 219.228515625 277.7265625 219.228515625 276.708007812 219.228515625 c 2,85,-1
 168.747070312 219.228515625 l 2,86,87
 167.728515625 219.228515625 167.728515625 219.228515625 167.548828125 218.209960938 c 2,88,-1
 149.829101562 117.720703125 l 1,89,90
 119.787109375 127.30859375 119.787109375 127.30859375 102.099609375 156.5078125 c 128,-1,91
 84.4111328125 185.70703125 84.4111328125 185.70703125 90.142578125 218.209960938 c 2,70,-1
212.33203125 4.3232421875 m 2,92,-1
 157.333007812 4.3232421875 l 2,93,94
 115.315429688 4.3232421875 115.315429688 4.3232421875 80.818359375 15.5205078125 c 128,-1,95
 46.322265625 26.7177734375 46.322265625 26.7177734375 19.1962890625 50.5126953125 c 128,-1,96
 -7.9287109375 74.30859375 -7.9287109375 74.30859375 -18.48828125 117.307617188 c 128,-1,97
 -29.0478515625 160.306640625 -29.0478515625 160.306640625 -18.837890625 218.209960938 c 2,98,-1
 18.8759765625 432.095703125 l 2,99,100
 29.0859375 489.999023438 29.0859375 489.999023438 54.80859375 532.998046875 c 128,-1,101
 80.53125 575.997070312 80.53125 575.997070312 116.049804688 599.791992188 c 128,-1,102
 151.56640625 623.587890625 151.56640625 623.587890625 190.01171875 634.784179688 c 128,-1,103
 228.458007812 645.981445312 228.458007812 645.981445312 270.475585938 645.981445312 c 2,104,-1
 325.474609375 645.981445312 l 2,105,106
 367.493164062 645.981445312 367.493164062 645.981445312 401.989257812 634.784179688 c 128,-1,107
 436.486328125 623.587890625 436.486328125 623.587890625 463.612304688 599.791992188 c 128,-1,108
 490.737304688 575.997070312 490.737304688 575.997070312 501.296875 532.998046875 c 128,-1,109
 511.857421875 489.999023438 511.857421875 489.999023438 501.647460938 432.095703125 c 2,110,-1
 463.93359375 218.209960938 l 2,111,112
 453.723632812 160.306640625 453.723632812 160.306640625 428 117.307617188 c 128,-1,113
 402.276367188 74.30859375 402.276367188 74.30859375 366.758789062 50.5126953125 c 128,-1,114
 331.2421875 26.7177734375 331.2421875 26.7177734375 292.795898438 15.5205078125 c 128,-1,115
 254.350585938 4.3232421875 254.350585938 4.3232421875 212.33203125 4.3232421875 c 2,92,-1
258.569335938 116.359375 m 1,116,117
 293.376953125 127.317382812 293.376953125 127.317382812 321.775390625 156.3203125 c 128,-1,118
 350.171875 185.322265625 350.171875 185.322265625 355.971679688 218.209960938 c 2,119,-1
 393.685546875 432.095703125 l 2,120,121
 400.689453125 471.817382812 400.689453125 471.817382812 373.423828125 504.91796875 c 128,-1,122
 346.159179688 538.01953125 346.159179688 538.01953125 306.4375 538.01953125 c 2,123,-1
 251.438476562 538.01953125 l 2,124,125
 211.716796875 538.01953125 211.716796875 538.01953125 172.779296875 504.91796875 c 128,-1,126
 133.841796875 471.817382812 133.841796875 471.817382812 126.837890625 432.095703125 c 2,127,-1
 89.1240234375 218.209960938 l 2,128,129
 83.263671875 184.974609375 83.263671875 184.974609375 101.520507812 155.3046875 c 128,-1,130
 119.77734375 125.635742188 119.77734375 125.635742188 150.608398438 116.359375 c 1,131,-1
 168.567382812 218.209960938 l 1,132,-1
 276.528320312 218.209960938 l 1,133,-1
 258.569335938 116.359375 l 1,116,117
EndSplineSet
EndChar

StartChar: R
Encoding: 82 82 35
Width: 600
VWidth: 1000
GlyphClass: 1
Flags: W
LayerCount: 2
Fore
SplineSet
59.1396484375 644.34765625 m 1,0,-1
 -53.8349609375 3.6376953125 l 1,1,-1
 53.966796875 3.6376953125 l 1,2,-1
 100.950195312 270.091796875 l 1,3,-1
 340.961914062 270.091796875 l 2,4,5
 420.2890625 270.091796875 420.2890625 270.091796875 406.30078125 190.765625 c 2,6,-1
 373.3046875 3.6376953125 l 1,7,-1
 481.107421875 3.6376953125 l 1,8,-1
 518.765625 217.208007812 l 2,9,10
 521.95703125 235.3046875 521.95703125 235.3046875 514.456054688 251.283203125 c 128,-1,11
 506.956054688 267.26171875 506.956054688 267.26171875 495.697265625 277.141601562 c 128,-1,12
 484.438476562 287.020507812 484.438476562 287.020507812 472.299804688 300.2265625 c 128,-1,13
 460.161132812 313.431640625 460.161132812 313.431640625 456.4140625 325.009765625 c 1,14,15
 482.6015625 325.009765625 482.6015625 325.009765625 514.020507812 346.744140625 c 128,-1,16
 545.438476562 368.479492188 545.438476562 368.479492188 551.76171875 404.3359375 c 2,17,-1
 565.749023438 483.662109375 l 2,18,19
 569.647460938 505.772460938 569.647460938 505.772460938 562.796875 531.458984375 c 128,-1,20
 555.947265625 557.146484375 555.947265625 557.146484375 537.422851562 583.456054688 c 128,-1,21
 518.8984375 609.766601562 518.8984375 609.766601562 478.016601562 627.057617188 c 128,-1,22
 437.135742188 644.34765625 437.135742188 644.34765625 380.51171875 644.34765625 c 2,23,-1
 59.1396484375 644.34765625 l 1,0,-1
387.944335938 536.545898438 m 2,24,25
 427.608398438 536.545898438 427.608398438 536.545898438 443.10546875 517.731445312 c 128,-1,26
 458.602539062 498.916992188 458.602539062 498.916992188 451.609375 459.25390625 c 0,27,28
 437.262695312 377.893554688 437.262695312 377.893554688 359.969726562 377.893554688 c 2,29,-1
 119.958007812 377.893554688 l 1,30,-1
 147.932617188 536.545898438 l 1,31,-1
 387.944335938 536.545898438 l 2,24,25
EndSplineSet
EndChar

StartChar: S
Encoding: 83 83 36
Width: 599
VWidth: 1000
GlyphClass: 1
Flags: W
LayerCount: 2
Fore
SplineSet
319.810546875 3.7138671875 m 2,0,1
 357.614257812 3.7138671875 357.614257812 3.7138671875 392.689453125 21.056640625 c 128,-1,2
 427.764648438 38.3984375 427.764648438 38.3984375 451.197265625 64.0986328125 c 128,-1,3
 474.630859375 89.798828125 474.630859375 89.798828125 489.725585938 116.3359375 c 128,-1,4
 504.819335938 142.872070312 504.819335938 142.872070312 508.577148438 164.184570312 c 2,5,-1
 518.008789062 217.673828125 l 2,6,7
 546.3046875 378.147460938 546.3046875 378.147460938 385.833007812 378.146484375 c 2,8,-1
 198.616210938 378.146484375 l 2,9,10
 118.380859375 378.146484375 118.380859375 378.146484375 132.528320312 458.381835938 c 128,-1,11
 146.676757812 538.619140625 146.676757812 538.619140625 226.912109375 538.618164062 c 2,12,-1
 574.600585938 538.618164062 l 1,13,14
 567.715820312 546.9765625 567.715820312 546.9765625 555.34375 569.541992188 c 128,-1,15
 542.970703125 592.107421875 542.970703125 592.107421875 532.682617188 606.31640625 c 128,-1,16
 522.393554688 620.525390625 522.393554688 620.525390625 496.337890625 633.061523438 c 128,-1,17
 470.28125 645.598632812 470.28125 645.598632812 432.9921875 645.598632812 c 2,18,-1
 219.030273438 645.598632812 l 2,19,20
 181.227539062 645.598632812 181.227539062 645.598632812 146.15234375 628.255859375 c 128,-1,21
 111.077148438 610.913085938 111.077148438 610.913085938 87.6435546875 585.212890625 c 128,-1,22
 64.2109375 559.512695312 64.2109375 559.512695312 49.1162109375 532.9765625 c 128,-1,23
 34.0224609375 506.440429688 34.0224609375 506.440429688 30.2646484375 485.127929688 c 2,24,-1
 20.83203125 431.63671875 l 2,25,26
 -7.462890625 271.166015625 -7.462890625 271.166015625 153.0078125 271.165039062 c 2,27,-1
 340.224609375 271.165039062 l 2,28,29
 420.208984375 271.165039062 420.208984375 271.165039062 406.0390625 190.803710938 c 0,30,31
 391.913085938 110.693359375 391.913085938 110.693359375 311.928710938 110.693359375 c 2,32,-1
 -35.7587890625 110.693359375 l 1,33,34
 -28.875 102.3359375 -28.875 102.3359375 -16.5029296875 79.76953125 c 128,-1,35
 -4.1298828125 57.2041015625 -4.1298828125 57.2041015625 6.158203125 42.99609375 c 128,-1,36
 16.447265625 28.787109375 16.447265625 28.787109375 42.50390625 16.2509765625 c 128,-1,37
 68.5595703125 3.7138671875 68.5595703125 3.7138671875 105.848632812 3.7138671875 c 2,38,-1
 319.810546875 3.7138671875 l 2,0,1
EndSplineSet
EndChar

StartChar: T
Encoding: 84 84 37
Width: 599
VWidth: 1000
GlyphClass: 1
Flags: W
LayerCount: 2
Fore
SplineSet
265.752929688 3.7138671875 m 1,0,-1
 158.772460938 3.7138671875 l 1,1,-1
 253.090820312 538.618164062 l 1,2,-1
 39.12890625 538.618164062 l 1,3,-1
 57.9921875 645.598632812 l 1,4,-1
 592.896484375 645.598632812 l 1,5,-1
 574.033203125 538.618164062 l 1,6,-1
 360.071289062 538.618164062 l 1,7,-1
 265.752929688 3.7138671875 l 1,0,-1
EndSplineSet
EndChar

StartChar: U
Encoding: 85 85 38
Width: 545
VWidth: 1000
GlyphClass: 1
Flags: W
LayerCount: 2
Fore
SplineSet
164.97265625 644.598632812 m 1,0,-1
 57.9921875 644.598632812 l 1,1,-1
 -17.462890625 216.673828125 l 2,2,3
 -27.65234375 158.885742188 -27.65234375 158.885742188 -17.2080078125 115.942382812 c 128,-1,4
 -6.7646484375 72.9990234375 -6.7646484375 72.9990234375 20.2275390625 49.1201171875 c 128,-1,5
 47.2197265625 25.240234375 47.2197265625 25.240234375 81.822265625 13.9765625 c 128,-1,6
 116.42578125 2.7138671875 116.42578125 2.7138671875 158.772460938 2.7138671875 c 2,7,-1
 212.262695312 2.7138671875 l 2,8,9
 254.609375 2.7138671875 254.609375 2.7138671875 293.184570312 13.9765625 c 128,-1,10
 331.758789062 25.240234375 331.758789062 25.240234375 367.172851562 49.1201171875 c 128,-1,11
 402.5859375 72.9990234375 402.5859375 72.9990234375 428.173828125 115.942382812 c 128,-1,12
 453.76171875 158.885742188 453.76171875 158.885742188 463.951171875 216.673828125 c 2,13,-1
 539.40625 644.598632812 l 1,14,-1
 432.424804688 644.598632812 l 1,15,-1
 356.969726562 216.673828125 l 2,16,17
 349.896484375 176.556640625 349.896484375 176.556640625 310.5703125 143.125 c 128,-1,18
 271.243164062 109.693359375 271.243164062 109.693359375 231.125976562 109.693359375 c 2,19,-1
 177.635742188 109.693359375 l 2,20,21
 137.517578125 109.693359375 137.517578125 109.693359375 109.98046875 143.125 c 128,-1,22
 82.4443359375 176.556640625 82.4443359375 176.556640625 89.517578125 216.673828125 c 2,23,-1
 164.97265625 644.598632812 l 1,0,-1
EndSplineSet
EndChar

StartChar: V
Encoding: 86 86 39
Width: 544
VWidth: 1000
GlyphClass: 1
Flags: W
LayerCount: 2
Fore
SplineSet
49.560546875 592.108398438 m 1,0,-1
 133.02734375 3.7138671875 l 1,1,-1
 240.0078125 3.7138671875 l 1,2,-1
 530.974609375 592.108398438 l 1,3,-1
 540.40625 645.598632812 l 1,4,-1
 433.424804688 645.598632812 l 1,5,-1
 423.993164062 592.108398438 l 1,6,-1
 205.377929688 110.693359375 l 1,7,-1
 156.541015625 592.108398438 l 1,8,-1
 165.97265625 645.598632812 l 1,9,-1
 58.9921875 645.598632812 l 1,10,-1
 49.560546875 592.108398438 l 1,0,-1
EndSplineSet
EndChar

StartChar: W
Encoding: 87 87 40
Width: 763
VWidth: 1000
GlyphClass: 1
Flags: W
LayerCount: 2
Fore
SplineSet
345.03515625 214.55078125 m 2,0,1
 344.862304688 215.188476562 344.862304688 215.188476562 344.154296875 215.149414062 c 128,-1,2
 343.446289062 215.110351562 343.446289062 215.110351562 343.116210938 214.446289062 c 2,3,-1
 239.25 5.341796875 l 1,4,-1
 132.77734375 5.341796875 l 1,5,-1
 49.2978515625 593.178710938 l 1,6,-1
 58.4287109375 644.962890625 l 1,7,-1
 164.354492188 644.962890625 l 1,8,9
 155.170898438 592.881835938 155.170898438 592.881835938 155.18359375 592.749023438 c 2,10,-1
 202.822265625 112.014648438 l 2,11,12
 202.89453125 111.274414062 202.89453125 111.274414062 203.671875 111.2734375 c 128,-1,13
 204.448242188 111.271484375 204.448242188 111.271484375 204.784179688 112.010742188 c 0,14,15
 424.053710938 592.87890625 424.053710938 592.87890625 424.079101562 593.01953125 c 2,16,-1
 433.23828125 644.962890625 l 1,17,-1
 539.1640625 644.962890625 l 1,18,-1
 530.032226562 593.177734375 l 1,19,20
 390.37109375 309.817382812 390.37109375 309.817382812 390.461914062 309.467773438 c 2,21,-1
 433.0234375 146.506835938 l 2,22,23
 433.1953125 145.8515625 433.1953125 145.8515625 433.922851562 145.90234375 c 128,-1,24
 434.649414062 145.954101562 434.649414062 145.954101562 434.961914062 146.640625 c 0,25,26
 637.940429688 592.879882812 637.940429688 592.879882812 637.96484375 593.01953125 c 2,27,-1
 647.124023438 644.962890625 l 1,28,-1
 753.049804688 644.962890625 l 1,29,-1
 743.918945312 593.178710938 l 1,30,-1
 453.134765625 5.341796875 l 1,31,-1
 401.578125 5.341796875 l 1,32,-1
 345.03515625 214.55078125 l 2,0,1
166.5703125 645.981445312 m 2,33,34
 166.749023438 647 166.749023438 647 165.73046875 647 c 2,35,-1
 57.7685546875 647 l 2,36,37
 56.7509765625 647 56.7509765625 647 56.572265625 645.981445312 c 0,38,39
 47.205078125 592.861328125 47.205078125 592.861328125 47.2255859375 592.7109375 c 2,40,-1
 130.828125 4.0146484375 l 2,41,42
 130.930664062 3.3046875 130.930664062 3.3046875 131.673828125 3.3046875 c 2,43,-1
 239.634765625 3.3046875 l 2,44,45
 240.377929688 3.3046875 240.377929688 3.3046875 240.729492188 4.0126953125 c 2,46,-1
 343.686523438 211.287109375 l 1,47,-1
 399.735351562 3.9091796875 l 2,48,49
 399.897460938 3.3046875 399.897460938 3.3046875 400.55859375 3.3046875 c 2,50,-1
 453.520507812 3.3046875 l 2,51,52
 454.264648438 3.3046875 454.264648438 3.3046875 454.6171875 4.0146484375 c 0,53,54
 745.8984375 592.861328125 745.8984375 592.861328125 745.926757812 593.01953125 c 2,55,-1
 755.265625 645.981445312 l 2,56,57
 755.444335938 647 755.444335938 647 754.42578125 647 c 2,58,-1
 646.463867188 647 l 2,59,60
 645.446289062 647 645.446289062 647 645.267578125 645.981445312 c 2,61,-1
 635.953125 593.16015625 l 1,62,-1
 434.350585938 149.944335938 l 1,63,-1
 392.564453125 309.932617188 l 1,64,65
 532.012695312 592.862304688 532.012695312 592.862304688 532.041015625 593.01953125 c 2,66,-1
 541.379882812 645.981445312 l 2,67,68
 541.55859375 647 541.55859375 647 540.540039062 647 c 2,69,-1
 432.578125 647 l 2,70,71
 431.560546875 647 431.560546875 647 431.381835938 645.981445312 c 2,72,-1
 422.067382812 593.16015625 l 1,73,-1
 204.53125 116.094726562 l 1,74,-1
 157.255859375 593.158203125 l 1,75,-1
 166.5703125 645.981445312 l 2,33,34
344.03125 214.135742188 m 1,76,-1
 239.813476562 4.3232421875 l 1,77,-1
 131.852539062 4.3232421875 l 1,78,-1
 48.2509765625 593.01953125 l 1,79,-1
 57.58984375 645.981445312 l 1,80,-1
 165.551757812 645.981445312 l 1,81,-1
 156.212890625 593.01953125 l 1,82,-1
 203.8515625 112.28515625 l 1,83,-1
 423.060546875 593.01953125 l 1,84,-1
 432.399414062 645.981445312 l 1,85,-1
 540.361328125 645.981445312 l 1,86,-1
 531.022460938 593.01953125 l 1,87,-1
 391.467773438 309.875 l 1,88,-1
 434.029296875 146.9140625 l 1,89,-1
 636.946289062 593.01953125 l 1,90,-1
 646.28515625 645.981445312 l 1,91,-1
 754.247070312 645.981445312 l 1,92,-1
 744.908203125 593.01953125 l 1,93,-1
 453.69921875 4.3232421875 l 1,94,-1
 400.737304688 4.3232421875 l 1,95,-1
 344.03125 214.135742188 l 1,76,-1
EndSplineSet
EndChar

StartChar: X
Encoding: 88 88 41
Width: 544
VWidth: 1000
GlyphClass: 1
Flags: W
LayerCount: 2
Fore
SplineSet
69.654296875 110.693359375 m 1,0,-1
 50.791015625 3.7138671875 l 1,1,-1
 -56.189453125 3.7138671875 l 1,2,-1
 -37.326171875 110.693359375 l 1,3,-1
 219.079101562 351.401367188 l 1,4,-1
 47.560546875 592.108398438 l 1,5,-1
 56.9921875 645.598632812 l 1,6,-1
 163.97265625 645.598632812 l 1,7,-1
 154.541015625 592.108398438 l 1,8,-1
 259.971679688 431.63671875 l 1,9,-1
 421.993164062 592.108398438 l 1,10,-1
 431.424804688 645.598632812 l 1,11,-1
 538.40625 645.598632812 l 1,12,-1
 528.974609375 592.108398438 l 1,13,-1
 272.569335938 351.401367188 l 1,14,-1
 444.087890625 110.693359375 l 1,15,-1
 425.224609375 3.7138671875 l 1,16,-1
 318.243164062 3.7138671875 l 1,17,-1
 337.106445312 110.693359375 l 1,18,-1
 231.676757812 271.165039062 l 1,19,-1
 69.654296875 110.693359375 l 1,0,-1
EndSplineSet
EndChar

StartChar: Y
Encoding: 89 89 42
Width: 596
VWidth: 1000
GlyphClass: 1
Flags: W
LayerCount: 2
Fore
SplineSet
264.752929688 2.7138671875 m 1,0,-1
 157.772460938 2.7138671875 l 1,1,-1
 204.931640625 270.165039062 l 1,2,3
 162.584960938 270.165039062 162.584960938 270.165039062 127.981445312 281.428710938 c 128,-1,4
 93.37890625 292.69140625 93.37890625 292.69140625 66.38671875 316.571289062 c 128,-1,5
 39.39453125 340.451171875 39.39453125 340.451171875 28.951171875 383.395507812 c 128,-1,6
 18.5068359375 426.338867188 18.5068359375 426.338867188 28.697265625 484.127929688 c 2,7,-1
 56.9921875 644.598632812 l 1,8,-1
 163.97265625 644.598632812 l 1,9,-1
 135.677734375 484.127929688 l 2,10,11
 128.603515625 444.009765625 128.603515625 444.009765625 156.139648438 410.578125 c 128,-1,12
 183.676757812 377.146484375 183.676757812 377.146484375 223.794921875 377.146484375 c 2,13,-1
 330.775390625 377.146484375 l 2,14,15
 370.893554688 377.146484375 370.893554688 377.146484375 410.219726562 410.578125 c 128,-1,16
 449.545898438 444.009765625 449.545898438 444.009765625 456.620117188 484.127929688 c 2,17,-1
 484.915039062 644.598632812 l 1,18,-1
 591.896484375 644.598632812 l 1,19,-1
 563.6015625 484.127929688 l 2,20,21
 553.411132812 426.338867188 553.411132812 426.338867188 527.823242188 383.395507812 c 128,-1,22
 502.235351562 340.451171875 502.235351562 340.451171875 466.821289062 316.571289062 c 128,-1,23
 431.408203125 292.69140625 431.408203125 292.69140625 392.833007812 281.428710938 c 128,-1,24
 354.2578125 270.165039062 354.2578125 270.165039062 311.912109375 270.165039062 c 1,25,-1
 264.752929688 2.7138671875 l 1,0,-1
EndSplineSet
EndChar

StartChar: Z
Encoding: 90 90 43
Width: 599
VWidth: 1000
GlyphClass: 1
Flags: W
LayerCount: 2
Fore
SplineSet
499.578125 109.693359375 m 1,0,-1
 480.71484375 2.7138671875 l 1,1,-1
 -54.189453125 2.7138671875 l 1,2,-1
 -30.6103515625 136.438476562 l 1,3,-1
 441.306640625 537.618164062 l 1,4,-1
 40.12890625 537.618164062 l 1,5,-1
 58.9921875 644.598632812 l 1,6,-1
 593.896484375 644.598632812 l 1,7,-1
 579.749023438 564.36328125 l 1,8,-1
 44.908203125 109.693359375 l 1,9,-1
 499.578125 109.693359375 l 1,0,-1
EndSplineSet
EndChar

StartChar: a
Encoding: 97 97 44
Width: 434
VWidth: 1000
GlyphClass: 1
Flags: W
LayerCount: 2
Fore
SplineSet
138.08984375 267.029296875 m 1,0,-1
 190.616210938 371.40234375 l 1,1,-1
 226.745117188 371.40234375 l 1,2,-1
 242.462890625 267.029296875 l 1,3,-1
 138.08984375 267.029296875 l 1,0,-1
234.095703125 162.65625 m 1,4,-1
 240.951171875 110.469726562 l 1,5,-1
 222.193359375 4.08984375 l 1,6,-1
 328.573242188 4.08984375 l 1,7,-1
 342.375976562 82.369140625 l 1,8,-1
 279.625 477.783203125 l 1,9,-1
 175.251953125 477.783203125 l 1,10,-1
 -26.943359375 82.369140625 l 1,11,-1
 -40.74609375 4.08984375 l 1,12,-1
 65.6337890625 4.08984375 l 1,13,-1
 84.3916015625 110.469726562 l 1,14,-1
 109.651367188 162.65625 l 1,15,-1
 234.095703125 162.65625 l 1,4,-1
EndSplineSet
EndChar

StartChar: b
Encoding: 98 98 45
Width: 435
VWidth: 1000
GlyphClass: 1
Flags: W
LayerCount: 2
Fore
SplineSet
86.265625 111.180664062 m 1,0,-1
 190.498046875 111.180664062 l 2,1,2
 210.041015625 111.180664062 210.041015625 111.180664062 229.19921875 127.466796875 c 128,-1,3
 248.356445312 143.752929688 248.356445312 143.752929688 251.802734375 163.296875 c 128,-1,4
 255.249023438 182.83984375 255.249023438 182.83984375 241.833984375 199.126953125 c 128,-1,5
 228.419921875 215.413085938 228.419921875 215.413085938 208.876953125 215.413085938 c 2,6,-1
 104.64453125 215.413085938 l 1,7,-1
 86.265625 111.180664062 l 1,0,-1
44.7080078125 477.998046875 m 1,8,-1
 203.061523438 477.998046875 l 2,9,10
 259.368164062 477.998046875 259.368164062 477.998046875 299.985351562 465.213867188 c 128,-1,11
 340.602539062 452.4296875 340.602539062 452.4296875 360.056640625 431.869140625 c 128,-1,12
 379.51171875 411.309570312 379.51171875 411.309570312 386.79296875 389.482421875 c 128,-1,13
 394.07421875 367.655273438 394.07421875 367.655273438 390.203125 345.703125 c 0,14,15
 383.674804688 308.677734375 383.674804688 308.677734375 348.7890625 288.102539062 c 128,-1,16
 313.904296875 267.528320312 313.904296875 267.528320312 270.181640625 267.528320312 c 1,17,18
 317.896484375 242.099609375 317.896484375 242.099609375 337.947265625 202.578125 c 128,-1,19
 357.998046875 163.057617188 357.998046875 163.057617188 353.4453125 137.23828125 c 0,20,21
 351.041992188 123.608398438 351.041992188 123.608398438 348.145507812 112.83984375 c 128,-1,22
 345.25 102.072265625 345.25 102.072265625 332.95703125 80.046875 c 128,-1,23
 320.663085938 58.021484375 320.663085938 58.021484375 302.959960938 43.373046875 c 128,-1,24
 285.255859375 28.724609375 285.255859375 28.724609375 250.868164062 16.833984375 c 128,-1,25
 216.481445312 4.943359375 216.481445312 4.943359375 171.765625 4.943359375 c 2,26,-1
 -38.7041015625 4.943359375 l 1,27,-1
 44.7080078125 477.998046875 l 1,8,-1
132.212890625 371.760742188 m 1,28,-1
 123.0234375 319.64453125 l 1,29,-1
 227.255859375 319.64453125 l 2,30,31
 248.71484375 319.64453125 248.71484375 319.64453125 265.220703125 326.326171875 c 128,-1,32
 281.727539062 333.0078125 281.727539062 333.0078125 283.965820312 345.703125 c 0,33,34
 288.560546875 371.760742188 288.560546875 371.760742188 236.4453125 371.760742188 c 2,35,-1
 132.212890625 371.760742188 l 1,28,-1
EndSplineSet
EndChar

StartChar: c
Encoding: 99 99 46
Width: 435
VWidth: 1000
GlyphClass: 1
Flags: W
LayerCount: 2
Fore
SplineSet
393.5234375 373.205078125 m 1,0,-1
 182.724609375 373.205078125 l 2,1,2
 162.962890625 373.205078125 162.962890625 373.205078125 143.590820312 356.736328125 c 128,-1,3
 124.217773438 340.267578125 124.217773438 340.267578125 120.733398438 320.505859375 c 2,4,-1
 92.8564453125 162.40625 l 2,5,6
 89.3720703125 142.64453125 89.3720703125 142.64453125 102.936523438 126.17578125 c 128,-1,7
 116.500976562 109.70703125 116.500976562 109.70703125 136.263671875 109.70703125 c 2,8,-1
 347.0625 109.70703125 l 1,9,10
 337.375976562 101.47265625 337.375976562 101.47265625 317.345703125 79.240234375 c 128,-1,11
 297.315429688 57.0078125 297.315429688 57.0078125 282.2421875 43.0087890625 c 128,-1,12
 267.168945312 29.0107421875 267.168945312 29.0107421875 237.142578125 16.6591796875 c 128,-1,13
 207.115234375 4.3076171875 207.115234375 4.3076171875 170.377929688 4.3076171875 c 2,14,-1
 117.678710938 4.3076171875 l 2,15,16
 -40.4208984375 4.3076171875 -40.4208984375 4.3076171875 -12.54296875 162.40625 c 2,17,-1
 15.333984375 320.505859375 l 2,18,19
 43.2109375 478.60546875 43.2109375 478.60546875 201.309570312 478.604492188 c 2,20,-1
 254.008789062 478.604492188 l 2,21,22
 290.747070312 478.604492188 290.747070312 478.604492188 316.41796875 466.252929688 c 128,-1,23
 342.088867188 453.901367188 342.088867188 453.901367188 352.225585938 439.903320312 c 128,-1,24
 362.362304688 425.904296875 362.362304688 425.904296875 374.551757812 403.671875 c 128,-1,25
 386.741210938 381.439453125 386.741210938 381.439453125 393.5234375 373.205078125 c 1,0,-1
EndSplineSet
EndChar

StartChar: d
Encoding: 100 100 47
Width: 434
VWidth: 1000
GlyphClass: 1
Flags: W
LayerCount: 2
Fore
SplineSet
86.265625 111.180664062 m 1,0,-1
 190.498046875 111.180664062 l 2,1,2
 210.041015625 111.180664062 210.041015625 111.180664062 229.19921875 127.466796875 c 128,-1,3
 248.356445312 143.752929688 248.356445312 143.752929688 251.802734375 163.296875 c 2,4,-1
 279.37109375 319.64453125 l 2,5,6
 282.817382812 339.188476562 282.817382812 339.188476562 269.403320312 355.474609375 c 128,-1,7
 255.98828125 371.760742188 255.98828125 371.760742188 236.4453125 371.760742188 c 2,8,-1
 132.212890625 371.760742188 l 1,9,-1
 86.265625 111.180664062 l 1,0,-1
44.7080078125 477.998046875 m 1,10,-1
 203.061523438 477.998046875 l 2,11,12
 260.0390625 477.998046875 260.0390625 477.998046875 299.204101562 460.146484375 c 128,-1,13
 338.368164062 442.294921875 338.368164062 442.294921875 356.348632812 411.473632812 c 128,-1,14
 374.329101562 380.65234375 374.329101562 380.65234375 379.01953125 344.763671875 c 128,-1,15
 383.708984375 308.875 383.708984375 308.875 376.418945312 267.528320312 c 2,16,-1
 358.040039062 163.296875 l 2,17,18
 330.118164062 4.943359375 330.118164062 4.943359375 171.765625 4.943359375 c 2,19,-1
 -38.7041015625 4.943359375 l 1,20,-1
 44.7080078125 477.998046875 l 1,10,-1
EndSplineSet
EndChar

StartChar: e
Encoding: 101 101 48
Width: 380
VWidth: 1000
GlyphClass: 1
Flags: W
LayerCount: 2
Fore
SplineSet
83.6240234375 108.588867188 m 2,0,1
 83.4462890625 107.58203125 83.4462890625 107.58203125 84.4521484375 107.58203125 c 2,2,-1
 294.826171875 107.58203125 l 1,3,-1
 276.368164062 2.8994140625 l 1,4,-1
 -39.6953125 2.8994140625 l 1,5,-1
 43.72265625 475.986328125 l 1,6,-1
 359.786132812 475.986328125 l 1,7,-1
 341.328125 371.303710938 l 1,8,-1
 130.954101562 371.303710938 l 2,9,10
 129.948242188 371.303710938 129.948242188 371.303710938 129.770507812 370.296875 c 2,11,-1
 120.541015625 317.955078125 l 2,12,13
 120.36328125 316.948242188 120.36328125 316.948242188 121.369140625 316.948242188 c 2,14,-1
 331.743164062 316.948242188 l 1,15,-1
 313.639648438 214.278320312 l 1,16,-1
 103.265625 214.278320312 l 2,17,18
 102.259765625 214.278320312 102.259765625 214.278320312 102.083007812 213.271484375 c 2,19,-1
 83.6240234375 108.588867188 l 2,0,1
131.60546875 369.290039062 m 1,20,-1
 341.978515625 369.290039062 l 2,21,22
 342.985351562 369.290039062 342.985351562 369.290039062 343.163085938 370.296875 c 2,23,-1
 361.9765625 476.993164062 l 2,24,25
 362.154296875 478 362.154296875 478 361.147460938 478 c 2,26,-1
 43.0712890625 478 l 2,27,28
 42.0654296875 478 42.0654296875 478 41.8876953125 476.993164062 c 2,29,-1
 -41.8857421875 1.892578125 l 2,30,31
 -42.0634765625 0.8857421875 -42.0634765625 0.8857421875 -41.0576171875 0.8857421875 c 2,32,-1
 277.018554688 0.8857421875 l 2,33,34
 278.025390625 0.8857421875 278.025390625 0.8857421875 278.203125 1.892578125 c 2,35,-1
 297.016601562 108.588867188 l 2,36,37
 297.194335938 109.595703125 297.194335938 109.595703125 296.1875 109.595703125 c 2,38,-1
 85.814453125 109.595703125 l 1,39,-1
 103.91796875 212.264648438 l 1,40,-1
 314.291015625 212.264648438 l 2,41,42
 315.297851562 212.264648438 315.297851562 212.264648438 315.475585938 213.271484375 c 2,43,-1
 333.93359375 317.955078125 l 2,44,45
 334.111328125 318.961914062 334.111328125 318.961914062 333.104492188 318.961914062 c 2,46,-1
 122.731445312 318.961914062 l 1,47,-1
 131.60546875 369.290039062 l 1,20,-1
84.6298828125 108.588867188 m 1,48,-1
 296.009765625 108.588867188 l 1,49,-1
 277.196289062 1.892578125 l 1,50,-1
 -40.8798828125 1.892578125 l 1,51,-1
 42.8935546875 476.993164062 l 1,52,-1
 360.969726562 476.993164062 l 1,53,-1
 342.15625 370.296875 l 1,54,-1
 130.776367188 370.296875 l 1,55,-1
 121.546875 317.955078125 l 1,56,-1
 332.926757812 317.955078125 l 1,57,-1
 314.46875 213.271484375 l 1,58,-1
 103.088867188 213.271484375 l 1,59,-1
 84.6298828125 108.588867188 l 1,48,-1
EndSplineSet
EndChar

StartChar: f
Encoding: 102 102 49
Width: 328
VWidth: 1000
GlyphClass: 1
Flags: W
LayerCount: 2
Fore
SplineSet
101.251953125 214.27734375 m 2,0,1
 100.245117188 214.27734375 100.245117188 214.27734375 100.068359375 213.271484375 c 2,2,-1
 62.9736328125 2.8984375 l 1,3,-1
 -39.6962890625 2.8984375 l 1,4,-1
 43.7216796875 475.986328125 l 1,5,-1
 305.430664062 475.986328125 l 1,6,-1
 286.97265625 371.302734375 l 1,7,-1
 128.940429688 371.302734375 l 2,8,9
 127.93359375 371.302734375 127.93359375 371.302734375 127.755859375 370.296875 c 2,10,-1
 118.526367188 317.955078125 l 2,11,12
 118.348632812 316.948242188 118.348632812 316.948242188 119.35546875 316.948242188 c 2,13,-1
 277.387695312 316.948242188 l 1,14,-1
 259.284179688 214.27734375 l 1,15,-1
 101.251953125 214.27734375 l 2,0,1
129.590820312 369.290039062 m 1,16,-1
 287.624023438 369.290039062 l 2,17,18
 288.629882812 369.290039062 288.629882812 369.290039062 288.807617188 370.296875 c 2,19,-1
 307.62109375 476.993164062 l 2,20,21
 307.798828125 477.999023438 307.798828125 477.999023438 306.79296875 477.999023438 c 2,22,-1
 43.0712890625 477.999023438 l 2,23,24
 42.064453125 477.999023438 42.064453125 477.999023438 41.88671875 476.993164062 c 2,25,-1
 -41.88671875 1.892578125 l 2,26,27
 -42.064453125 0.8857421875 -42.064453125 0.8857421875 -41.0576171875 0.8857421875 c 2,28,-1
 63.625 0.8857421875 l 2,29,30
 64.630859375 0.8857421875 64.630859375 0.8857421875 64.80859375 1.892578125 c 2,31,-1
 101.903320312 212.264648438 l 1,32,-1
 259.936523438 212.264648438 l 2,33,34
 260.942382812 212.264648438 260.942382812 212.264648438 261.120117188 213.271484375 c 2,35,-1
 279.578125 317.955078125 l 2,36,37
 279.755859375 318.9609375 279.755859375 318.9609375 278.75 318.9609375 c 2,38,-1
 120.716796875 318.9609375 l 1,39,-1
 129.590820312 369.290039062 l 1,16,-1
101.075195312 213.271484375 m 1,40,-1
 63.802734375 1.892578125 l 1,41,-1
 -40.8798828125 1.892578125 l 1,42,-1
 42.8935546875 476.993164062 l 1,43,-1
 306.615234375 476.993164062 l 1,44,-1
 287.801757812 370.296875 l 1,45,-1
 128.762695312 370.296875 l 1,46,-1
 119.533203125 317.955078125 l 1,47,-1
 278.572265625 317.955078125 l 1,48,-1
 260.114257812 213.271484375 l 1,49,-1
 101.075195312 213.271484375 l 1,40,-1
EndSplineSet
EndChar

StartChar: g
Encoding: 103 103 50
Width: 433
VWidth: 1000
GlyphClass: 1
Flags: W
LayerCount: 2
Fore
SplineSet
250.955078125 162.40625 m 2,0,-1
 260.247070312 215.106445312 l 1,1,-1
 208.000976562 215.262695312 l 1,2,-1
 154.84765625 215.106445312 l 1,3,-1
 173.432617188 320.505859375 l 1,4,-1
 384.231445312 320.505859375 l 1,5,-1
 337.76953125 57.0078125 l 2,6,7
 334.28515625 37.24609375 334.28515625 37.24609375 314.912109375 20.7763671875 c 128,-1,8
 295.5390625 4.3076171875 295.5390625 4.3076171875 275.77734375 4.3076171875 c 2,9,-1
 117.678710938 4.3076171875 l 2,10,11
 -40.4208984375 4.3076171875 -40.4208984375 4.3076171875 -12.54296875 162.40625 c 2,12,-1
 15.333984375 320.505859375 l 2,13,14
 43.2109375 478.60546875 43.2109375 478.60546875 201.309570312 478.604492188 c 2,15,-1
 412.108398438 478.604492188 l 1,16,-1
 393.5234375 373.205078125 l 1,17,-1
 182.724609375 373.205078125 l 2,18,19
 162.962890625 373.205078125 162.962890625 373.205078125 143.590820312 356.736328125 c 128,-1,20
 124.217773438 340.267578125 124.217773438 340.267578125 120.733398438 320.505859375 c 2,21,-1
 92.8564453125 162.40625 l 2,22,23
 89.3720703125 142.643554688 89.3720703125 142.643554688 102.936523438 126.17578125 c 128,-1,24
 116.5 109.70703125 116.5 109.70703125 136.263671875 109.70703125 c 2,25,-1
 188.962890625 109.70703125 l 2,26,27
 228.487304688 109.70703125 228.487304688 109.70703125 236.236328125 116.294921875 c 128,-1,28
 243.985351562 122.881835938 243.985351562 122.881835938 250.955078125 162.40625 c 2,0,-1
EndSplineSet
EndChar

StartChar: h
Encoding: 104 104 51
Width: 432
VWidth: 1000
GlyphClass: 1
Flags: W
LayerCount: 2
Fore
SplineSet
102.1484375 215.106445312 m 1,0,-1
 64.9794921875 4.3076171875 l 1,1,-1
 -40.419921875 4.3076171875 l 1,2,-1
 43.2109375 478.604492188 l 1,3,-1
 148.610351562 478.604492188 l 1,4,-1
 120.733398438 320.505859375 l 1,5,-1
 278.83203125 320.505859375 l 1,6,-1
 306.708984375 478.604492188 l 1,7,-1
 412.108398438 478.604492188 l 1,8,-1
 328.477539062 4.3076171875 l 1,9,-1
 223.078125 4.3076171875 l 1,10,-1
 260.247070312 215.106445312 l 1,11,-1
 102.1484375 215.106445312 l 1,0,-1
EndSplineSet
EndChar

StartChar: i
Encoding: 105 105 52
Width: 170
VWidth: 1000
GlyphClass: 1
Flags: W
LayerCount: 2
Fore
SplineSet
44.388671875 479.603515625 m 1,0,-1
 150.232421875 479.603515625 l 1,1,-1
 66.248046875 3.30859375 l 1,2,-1
 -39.595703125 3.30859375 l 1,3,-1
 44.388671875 479.603515625 l 1,0,-1
EndSplineSet
EndChar

StartChar: j
Encoding: 106 106 53
Width: 378
VWidth: 1000
GlyphClass: 1
Flags: W
LayerCount: 2
Fore
SplineSet
253.008789062 478.604492188 m 1,0,-1
 358.408203125 478.604492188 l 1,1,-1
 302.654296875 162.40625 l 2,2,3
 289.490234375 87.7490234375 289.490234375 87.7490234375 235.198242188 46.0283203125 c 128,-1,4
 180.90625 4.3076171875 180.90625 4.3076171875 116.678710938 4.3076171875 c 128,-1,5
 52.451171875 4.3076171875 52.451171875 4.3076171875 12.8720703125 46.0283203125 c 128,-1,6
 -26.70703125 87.7490234375 -26.70703125 87.7490234375 -13.54296875 162.40625 c 2,7,-1
 -4.2509765625 215.106445312 l 1,8,-1
 101.1484375 215.106445312 l 1,9,-1
 91.8564453125 162.40625 l 2,10,11
 88.5380859375 143.584960938 88.5380859375 143.584960938 90.4912109375 132.096679688 c 128,-1,12
 92.4453125 120.607421875 92.4453125 120.607421875 100.71484375 116.137695312 c 128,-1,13
 108.984375 111.66796875 108.984375 111.66796875 115.536132812 110.6875 c 128,-1,14
 122.087890625 109.70703125 122.087890625 109.70703125 135.263671875 109.70703125 c 128,-1,15
 148.438476562 109.70703125 148.438476562 109.70703125 155.3359375 110.6875 c 128,-1,16
 162.233398438 111.66796875 162.233398438 111.66796875 172.079101562 116.137695312 c 128,-1,17
 181.924804688 120.607421875 181.924804688 120.607421875 187.930664062 132.096679688 c 128,-1,18
 193.936523438 143.584960938 193.936523438 143.584960938 197.254882812 162.40625 c 2,19,-1
 253.008789062 478.604492188 l 1,0,-1
EndSplineSet
EndChar

StartChar: k
Encoding: 107 107 54
Width: 433
VWidth: 1000
GlyphClass: 1
Flags: W
LayerCount: 2
Fore
SplineSet
102.1484375 215.106445312 m 1,0,-1
 64.9794921875 4.3076171875 l 1,1,-1
 -40.419921875 4.3076171875 l 1,2,-1
 43.2109375 478.604492188 l 1,3,-1
 148.610351562 478.604492188 l 1,4,-1
 116.086914062 294.15625 l 1,5,-1
 333.05859375 478.604492188 l 1,6,-1
 412.108398438 478.604492188 l 1,7,-1
 407.462890625 452.254882812 l 1,8,-1
 190.490234375 267.806640625 l 1,9,-1
 216.83984375 267.806640625 l 2,10,11
 374.938476562 267.806640625 374.938476562 267.806640625 347.0625 109.70703125 c 2,12,-1
 328.477539062 4.3076171875 l 1,13,-1
 223.078125 4.3076171875 l 1,14,-1
 250.955078125 162.40625 l 2,15,16
 254.439453125 182.168945312 254.439453125 182.168945312 240.875 198.637695312 c 128,-1,17
 227.310546875 215.106445312 227.310546875 215.106445312 207.546875 215.106445312 c 2,18,-1
 102.1484375 215.106445312 l 1,0,-1
EndSplineSet
EndChar

StartChar: l
Encoding: 108 108 55
Width: 380
VWidth: 1000
GlyphClass: 1
Flags: W
LayerCount: 2
Fore
SplineSet
294.362304688 108.70703125 m 1,0,-1
 275.77734375 3.3076171875 l 1,1,-1
 -40.419921875 3.3076171875 l 1,2,-1
 43.2109375 477.604492188 l 1,3,-1
 148.610351562 477.604492188 l 1,4,-1
 83.564453125 108.70703125 l 1,5,-1
 294.362304688 108.70703125 l 1,0,-1
EndSplineSet
EndChar

StartChar: m
Encoding: 109 109 56
Width: 588
VWidth: 1000
GlyphClass: 1
Flags: W
LayerCount: 2
Fore
SplineSet
115.086914062 294.15625 m 1,0,-1
 63.9794921875 4.3076171875 l 1,1,-1
 -41.419921875 4.3076171875 l 1,2,-1
 42.2109375 478.604492188 l 1,3,-1
 121.259765625 478.604492188 l 1,4,-1
 249.955078125 162.40625 l 1,5,-1
 490.157226562 478.604492188 l 1,6,-1
 569.20703125 478.604492188 l 1,7,-1
 485.576171875 4.3076171875 l 1,8,-1
 380.176757812 4.3076171875 l 1,9,-1
 431.284179688 294.15625 l 1,10,-1
 231.370117188 57.0078125 l 1,11,-1
 115.086914062 294.15625 l 1,0,-1
EndSplineSet
EndChar

StartChar: n
Encoding: 110 110 57
Width: 432
VWidth: 1000
GlyphClass: 1
Flags: W
LayerCount: 2
Fore
SplineSet
130.025390625 373.205078125 m 1,0,-1
 64.9794921875 4.3076171875 l 1,1,-1
 -40.419921875 4.3076171875 l 1,2,-1
 43.2109375 478.604492188 l 1,3,-1
 201.309570312 478.604492188 l 2,4,5
 258.244140625 478.604492188 258.244140625 478.604492188 297.422851562 460.854492188 c 128,-1,6
 336.602539062 443.10546875 336.602539062 443.10546875 354.708007812 412.364257812 c 128,-1,7
 372.814453125 381.623046875 372.814453125 381.623046875 377.5546875 345.575195312 c 128,-1,8
 382.295898438 309.526367188 382.295898438 309.526367188 374.939453125 267.806640625 c 2,9,-1
 328.477539062 4.3076171875 l 1,10,-1
 223.078125 4.3076171875 l 1,11,-1
 278.83203125 320.505859375 l 2,12,13
 282.31640625 340.268554688 282.31640625 340.268554688 268.751953125 356.736328125 c 128,-1,14
 255.1875 373.205078125 255.1875 373.205078125 235.423828125 373.205078125 c 2,15,-1
 130.025390625 373.205078125 l 1,0,-1
EndSplineSet
EndChar

StartChar: o
Encoding: 111 111 58
Width: 432
VWidth: 1000
GlyphClass: 1
Flags: W
LayerCount: 2
Fore
SplineSet
121.0234375 319.64453125 m 2,0,1
 124.469726562 339.188476562 124.469726562 339.188476562 143.626953125 355.474609375 c 128,-1,2
 162.78515625 371.760742188 162.78515625 371.760742188 182.329101562 371.760742188 c 2,3,-1
 234.4453125 371.760742188 l 2,4,5
 253.98828125 371.760742188 253.98828125 371.760742188 267.403320312 355.474609375 c 128,-1,6
 280.817382812 339.188476562 280.817382812 339.188476562 277.37109375 319.64453125 c 2,7,-1
 249.802734375 163.296875 l 2,8,9
 246.356445312 143.752929688 246.356445312 143.752929688 227.19921875 127.466796875 c 128,-1,10
 208.041015625 111.180664062 208.041015625 111.180664062 188.498046875 111.180664062 c 2,11,-1
 136.381835938 111.180664062 l 2,12,13
 116.837890625 111.180664062 116.837890625 111.180664062 103.423828125 127.466796875 c 128,-1,14
 90.0087890625 143.752929688 90.0087890625 143.752929688 93.455078125 163.296875 c 2,15,-1
 121.0234375 319.64453125 l 2,0,1
-12.7822265625 163.296875 m 2,16,17
 -40.7041015625 4.943359375 -40.7041015625 4.943359375 117.649414062 4.943359375 c 2,18,-1
 169.765625 4.943359375 l 2,19,20
 328.118164062 4.943359375 328.118164062 4.943359375 356.040039062 163.296875 c 2,21,-1
 383.608398438 319.64453125 l 2,22,23
 411.530273438 477.998046875 411.530273438 477.998046875 253.177734375 477.998046875 c 2,24,-1
 201.061523438 477.998046875 l 2,25,26
 42.7080078125 477.998046875 42.7080078125 477.998046875 14.7861328125 319.64453125 c 2,27,-1
 -12.7822265625 163.296875 l 2,16,17
EndSplineSet
EndChar

StartChar: p
Encoding: 112 112 59
Width: 434
VWidth: 1000
GlyphClass: 1
Flags: W
LayerCount: 2
Fore
SplineSet
132.212890625 371.760742188 m 1,0,-1
 113.833984375 267.528320312 l 1,1,-1
 218.06640625 267.528320312 l 2,2,3
 237.609375 267.528320312 237.609375 267.528320312 256.767578125 283.814453125 c 128,-1,4
 275.924804688 300.1015625 275.924804688 300.1015625 279.37109375 319.64453125 c 128,-1,5
 282.817382812 339.188476562 282.817382812 339.188476562 269.403320312 355.474609375 c 128,-1,6
 255.98828125 371.760742188 255.98828125 371.760742188 236.4453125 371.760742188 c 2,7,-1
 132.212890625 371.760742188 l 1,0,-1
203.061523438 477.998046875 m 2,8,9
 258.86328125 477.998046875 258.86328125 477.998046875 299.151367188 460.958007812 c 128,-1,10
 339.438476562 443.918945312 339.438476562 443.918945312 357.694335938 417.990234375 c 128,-1,11
 375.94921875 392.0625 375.94921875 392.0625 382.700195312 366.748046875 c 128,-1,12
 389.450195312 341.43359375 389.450195312 341.43359375 385.608398438 319.64453125 c 2,13,-1
 376.418945312 267.528320312 l 2,14,15
 368.936523438 225.091796875 368.936523438 225.091796875 321.895507812 194.194335938 c 128,-1,16
 274.854492188 163.296875 274.854492188 163.296875 199.6875 163.296875 c 2,17,-1
 95.455078125 163.296875 l 1,18,-1
 67.533203125 4.943359375 l 1,19,-1
 -38.7041015625 4.943359375 l 1,20,-1
 44.7080078125 477.998046875 l 1,21,-1
 203.061523438 477.998046875 l 2,8,9
EndSplineSet
EndChar

StartChar: q
Encoding: 113 113 60
Width: 460
VWidth: 1000
GlyphClass: 1
Flags: W
LayerCount: 2
Fore
SplineSet
286.266601562 37.3779296875 m 2,0,1
 286.083007812 37.51171875 286.083007812 37.51171875 275.544921875 30.1513671875 c 128,-1,2
 265.006835938 22.791015625 265.006835938 22.791015625 236.649414062 14.1474609375 c 128,-1,3
 208.29296875 5.50390625 208.29296875 5.50390625 169.98828125 5.50390625 c 2,4,-1
 117.93359375 5.50390625 l 2,5,6
 -39.2314453125 5.50390625 -39.2314453125 5.50390625 -11.51953125 162.668945312 c 2,7,-1
 16.0166015625 318.833007812 l 2,8,9
 43.7294921875 475.998046875 43.7294921875 475.998046875 200.89453125 475.998046875 c 2,10,-1
 252.94921875 475.998046875 l 2,11,12
 410.114257812 475.998046875 410.114257812 475.998046875 382.401367188 318.833007812 c 2,13,-1
 354.865234375 162.668945312 l 2,14,15
 353.224609375 153.362304688 353.224609375 153.362304688 350.66015625 143.497070312 c 128,-1,16
 348.095703125 133.630859375 348.095703125 133.630859375 345.583007812 126.057617188 c 128,-1,17
 343.071289062 118.485351562 343.071289062 118.485351562 340.809570312 112.340820312 c 128,-1,18
 338.548828125 106.197265625 338.548828125 106.197265625 337.077148438 102.526367188 c 128,-1,19
 335.604492188 98.8544921875 335.604492188 98.8544921875 335.559570312 98.6015625 c 0,20,21
 335.467773438 98.078125 335.467773438 98.078125 335.844726562 97.779296875 c 2,22,-1
 376.245117188 65.74609375 l 2,23,24
 404.396484375 44.9404296875 404.396484375 44.9404296875 385.592773438 20.6435546875 c 0,25,26
 368.2578125 -1.7548828125 368.2578125 -1.7548828125 338.405273438 4.748046875 c 0,27,28
 326.614257812 7.31640625 326.614257812 7.31640625 316.44140625 15.337890625 c 2,29,-1
 286.266601562 37.3779296875 l 2,0,1
14.0146484375 318.833007812 m 2,30,-1
 -13.521484375 162.668945312 l 2,31,32
 -41.5869140625 3.501953125 -41.5869140625 3.501953125 117.580078125 3.501953125 c 2,33,-1
 169.634765625 3.501953125 l 2,34,35
 241.748046875 3.501953125 241.748046875 3.501953125 285.43359375 35.294921875 c 1,36,-1
 315.013671875 13.6904296875 l 2,37,38
 344.869140625 -9.8525390625 344.869140625 -9.8525390625 375.49609375 9.2822265625 c 0,39,40
 401.336914062 25.4267578125 401.336914062 25.4267578125 392.459960938 49.1689453125 c 0,41,42
 388.689453125 59.251953125 388.689453125 59.251953125 377.676757812 67.390625 c 0,43,44
 344.23046875 93.91015625 344.23046875 93.91015625 337.760742188 99.0400390625 c 1,45,46
 351.940429688 134.725585938 351.940429688 134.725585938 356.8671875 162.668945312 c 2,47,-1
 384.403320312 318.833007812 l 2,48,49
 412.46875 478 412.46875 478 253.301757812 478 c 2,50,-1
 201.247070312 478 l 2,51,52
 42.080078125 478 42.080078125 478 14.0146484375 318.833007812 c 2,30,-1
94.591796875 162.668945312 m 2,53,-1
 122.127929688 318.833007812 l 2,54,55
 125.4921875 337.912109375 125.4921875 337.912109375 144.298828125 353.899414062 c 128,-1,56
 163.104492188 369.88671875 163.104492188 369.88671875 182.18359375 369.88671875 c 2,57,-1
 234.23828125 369.88671875 l 2,58,59
 253.31640625 369.88671875 253.31640625 369.88671875 266.486328125 353.899414062 c 128,-1,60
 279.654296875 337.912109375 279.654296875 337.912109375 276.290039062 318.833007812 c 2,61,-1
 249.15625 164.948242188 l 1,62,63
 238.301757812 175.706054688 238.301757812 175.706054688 218.72265625 167.1875 c 128,-1,64
 199.143554688 158.668945312 199.143554688 158.668945312 189.615234375 142.443359375 c 128,-1,65
 180.086914062 126.217773438 180.086914062 126.217773438 186.418945312 111.615234375 c 1,66,-1
 136.643554688 111.615234375 l 2,67,68
 117.564453125 111.615234375 117.564453125 111.615234375 104.396484375 127.602539062 c 128,-1,69
 91.228515625 143.590820312 91.228515625 143.590820312 94.591796875 162.668945312 c 2,53,-1
233.793945312 168.76171875 m 0,70,71
 238.740234375 168.76171875 238.740234375 168.76171875 242.380859375 166.98828125 c 128,-1,72
 246.020507812 165.21484375 246.020507812 165.21484375 247.703125 163.44140625 c 128,-1,73
 249.385742188 161.66796875 249.385742188 161.66796875 249.579101562 161.66796875 c 0,74,75
 250.580078125 161.66796875 250.580078125 161.66796875 250.755859375 162.668945312 c 2,76,-1
 278.291992188 318.833007812 l 2,77,78
 281.8125 338.795898438 281.8125 338.795898438 268.182617188 355.341796875 c 128,-1,79
 254.553710938 371.888671875 254.553710938 371.888671875 234.591796875 371.888671875 c 2,80,-1
 182.537109375 371.888671875 l 2,81,82
 162.57421875 371.888671875 162.57421875 371.888671875 143.110351562 355.341796875 c 128,-1,83
 123.646484375 338.795898438 123.646484375 338.795898438 120.125976562 318.833007812 c 2,84,-1
 92.58984375 162.668945312 l 2,85,86
 89.0703125 142.70703125 89.0703125 142.70703125 102.69921875 126.16015625 c 128,-1,87
 116.328125 109.61328125 116.328125 109.61328125 136.291015625 109.61328125 c 2,88,-1
 188.345703125 109.61328125 l 2,89,90
 190.389648438 110.52734375 190.389648438 110.52734375 189.163085938 111.25 c 128,-1,91
 187.936523438 111.97265625 187.936523438 111.97265625 186.169921875 116.89453125 c 128,-1,92
 184.404296875 121.817382812 184.404296875 121.817382812 185.432617188 127.649414062 c 0,93,94
 187.981445312 142.10546875 187.981445312 142.10546875 203.66015625 155.43359375 c 128,-1,95
 219.337890625 168.76171875 219.337890625 168.76171875 233.793945312 168.76171875 c 0,70,71
93.5908203125 162.668945312 m 2,96,97
 90.1494140625 143.1484375 90.1494140625 143.1484375 103.546875 126.880859375 c 128,-1,98
 116.946289062 110.614257812 116.946289062 110.614257812 136.466796875 110.614257812 c 2,99,-1
 188.521484375 110.614257812 l 1,100,101
 178.3984375 122.905273438 178.3984375 122.905273438 190.10546875 141.461914062 c 128,-1,102
 201.8125 160.017578125 201.8125 160.017578125 219.586914062 166.524414062 c 128,-1,103
 237.36328125 173.03125 237.36328125 173.03125 249.754882812 162.668945312 c 1,104,-1
 277.291015625 318.833007812 l 2,105,106
 280.733398438 338.353515625 280.733398438 338.353515625 267.334960938 354.62109375 c 128,-1,107
 253.935546875 370.887695312 253.935546875 370.887695312 234.415039062 370.887695312 c 2,108,-1
 182.360351562 370.887695312 l 2,109,110
 162.83984375 370.887695312 162.83984375 370.887695312 143.704101562 354.62109375 c 128,-1,111
 124.569335938 338.353515625 124.569335938 338.353515625 121.126953125 318.833007812 c 2,112,-1
 93.5908203125 162.668945312 l 2,96,97
15.015625 318.833007812 m 2,113,114
 42.904296875 476.999023438 42.904296875 476.999023438 201.0703125 476.999023438 c 2,115,-1
 253.125 476.999023438 l 2,116,117
 411.291015625 476.999023438 411.291015625 476.999023438 383.40234375 318.833007812 c 2,118,-1
 355.866210938 162.668945312 l 2,119,120
 350.923828125 134.63671875 350.923828125 134.63671875 336.560546875 98.6015625 c 1,121,-1
 376.9609375 66.568359375 l 2,122,123
 405.181640625 45.7109375 405.181640625 45.7109375 386.92578125 20.900390625 c 0,124,125
 370.190429688 -1.8427734375 370.190429688 -1.8427734375 340.192382812 3.3359375 c 0,126,127
 327.018554688 5.6103515625 327.018554688 5.6103515625 315.728515625 14.513671875 c 2,128,-1
 285.575195312 36.537109375 l 1,129,130
 242.068359375 4.5029296875 242.068359375 4.5029296875 169.811523438 4.5029296875 c 2,131,-1
 117.756835938 4.5029296875 l 2,132,133
 -40.4091796875 4.5029296875 -40.4091796875 4.5029296875 -12.5205078125 162.668945312 c 2,134,-1
 15.015625 318.833007812 l 2,113,114
EndSplineSet
EndChar

StartChar: r
Encoding: 114 114 61
Width: 445
VWidth: 1000
GlyphClass: 1
Flags: W
LayerCount: 2
Fore
SplineSet
132.212890625 371.760742188 m 1,0,-1
 113.833984375 267.529296875 l 1,1,-1
 218.06640625 267.529296875 l 2,2,3
 237.284179688 267.529296875 237.284179688 267.529296875 256.708007812 284.400390625 c 128,-1,4
 276.130859375 301.270507812 276.130859375 301.270507812 279.37109375 319.64453125 c 0,5,6
 282.817382812 339.188476562 282.817382812 339.188476562 269.403320312 355.474609375 c 128,-1,7
 255.98828125 371.760742188 255.98828125 371.760742188 236.4453125 371.760742188 c 2,8,-1
 132.212890625 371.760742188 l 1,0,-1
203.061523438 477.998046875 m 2,9,10
 258.86328125 477.998046875 258.86328125 477.998046875 299.151367188 460.958007812 c 128,-1,11
 339.438476562 443.918945312 339.438476562 443.918945312 357.694335938 417.990234375 c 128,-1,12
 375.94921875 392.0625 375.94921875 392.0625 382.700195312 366.748046875 c 128,-1,13
 389.450195312 341.43359375 389.450195312 341.43359375 385.608398438 319.64453125 c 0,14,15
 378.109375 277.116210938 378.109375 277.116210938 351.706054688 246.264648438 c 128,-1,16
 325.302734375 215.413085938 325.302734375 215.413085938 287.05078125 215.413085938 c 1,17,18
 310.102539062 215.413085938 310.102539062 215.413085938 332.713867188 181.65625 c 128,-1,19
 355.325195312 147.8984375 355.325195312 147.8984375 348.850585938 111.180664062 c 2,20,-1
 330.118164062 4.943359375 l 1,21,-1
 223.880859375 4.943359375 l 1,22,-1
 242.61328125 111.180664062 l 2,23,24
 246.059570312 130.723632812 246.059570312 130.723632812 232.64453125 147.010742188 c 128,-1,25
 219.23046875 163.296875 219.23046875 163.296875 199.6875 163.296875 c 2,26,-1
 95.455078125 163.296875 l 1,27,-1
 67.533203125 4.943359375 l 1,28,-1
 -38.7041015625 4.943359375 l 1,29,-1
 44.7080078125 477.998046875 l 1,30,-1
 203.061523438 477.998046875 l 2,9,10
EndSplineSet
EndChar

StartChar: s
Encoding: 115 115 62
Width: 434
VWidth: 1000
GlyphClass: 1
Flags: W
LayerCount: 2
Fore
SplineSet
-20.2763671875 109.70703125 m 1,0,-1
 190.522460938 109.70703125 l 2,1,2
 210.284179688 109.70703125 210.284179688 109.70703125 229.65625 126.17578125 c 128,-1,3
 249.029296875 142.64453125 249.029296875 142.64453125 252.513671875 162.40625 c 128,-1,4
 255.998046875 182.168945312 255.998046875 182.168945312 242.43359375 198.637695312 c 128,-1,5
 228.869140625 215.106445312 228.869140625 215.106445312 209.106445312 215.106445312 c 2,6,-1
 156.40625 215.106445312 l 2,7,8
 81.7490234375 215.106445312 81.7490234375 215.106445312 45.5458984375 246.397460938 c 128,-1,9
 9.3427734375 277.6875 9.3427734375 277.6875 16.892578125 320.505859375 c 2,10,-1
 26.1845703125 373.205078125 l 2,11,12
 33.7353515625 416.0234375 33.7353515625 416.0234375 80.97265625 447.314453125 c 128,-1,13
 128.2109375 478.604492188 128.2109375 478.604492188 202.868164062 478.604492188 c 2,14,-1
 255.568359375 478.604492188 l 2,15,16
 292.306640625 478.604492188 292.306640625 478.604492188 317.977539062 466.252929688 c 128,-1,17
 343.6484375 453.901367188 343.6484375 453.901367188 353.784179688 439.903320312 c 128,-1,18
 363.920898438 425.904296875 363.920898438 425.904296875 376.110351562 403.671875 c 128,-1,19
 388.299804688 381.439453125 388.299804688 381.439453125 395.08203125 373.205078125 c 1,20,-1
 184.283203125 373.205078125 l 2,21,22
 131.583984375 373.205078125 131.583984375 373.205078125 126.938476562 346.85546875 c 128,-1,23
 122.291992188 320.505859375 122.291992188 320.505859375 174.991210938 320.505859375 c 2,24,-1
 227.69140625 320.505859375 l 2,25,26
 304.859375 320.505859375 304.859375 320.505859375 339.081054688 285.098632812 c 128,-1,27
 373.303710938 249.69140625 373.303710938 249.69140625 362.559570312 188.756835938 c 2,28,-1
 353.266601562 136.056640625 l 2,29,30
 342.522460938 75.123046875 342.522460938 75.123046875 295.813476562 39.71484375 c 128,-1,31
 249.104492188 4.3076171875 249.104492188 4.3076171875 171.9375 4.3076171875 c 2,32,-1
 119.237304688 4.3076171875 l 2,33,34
 82.5 4.3076171875 82.5 4.3076171875 56.8291015625 16.6591796875 c 128,-1,35
 31.158203125 29.0107421875 31.158203125 29.0107421875 21.021484375 43.0087890625 c 128,-1,36
 10.884765625 57.0078125 10.884765625 57.0078125 -1.3046875 79.240234375 c 128,-1,37
 -13.494140625 101.47265625 -13.494140625 101.47265625 -20.2763671875 109.70703125 c 1,0,-1
EndSplineSet
EndChar

StartChar: t
Encoding: 116 116 63
Width: 380
VWidth: 1000
GlyphClass: 1
Flags: W
LayerCount: 2
Fore
SplineSet
170.377929688 3.3076171875 m 1,0,-1
 64.9794921875 3.3076171875 l 1,1,-1
 130.025390625 372.205078125 l 1,2,-1
 24.6259765625 372.205078125 l 1,3,-1
 43.2109375 477.604492188 l 1,4,-1
 359.408203125 477.604492188 l 1,5,-1
 340.823242188 372.205078125 l 1,6,-1
 235.423828125 372.205078125 l 1,7,-1
 170.377929688 3.3076171875 l 1,0,-1
EndSplineSet
EndChar

StartChar: u
Encoding: 117 117 64
Width: 432
VWidth: 1000
GlyphClass: 1
Flags: W
LayerCount: 2
Fore
SplineSet
148.232421875 479.603515625 m 1,0,-1
 42.388671875 479.603515625 l 1,1,-1
 -13.6005859375 162.073242188 l 2,2,3
 -41.5947265625 3.310546875 -41.5947265625 3.310546875 117.168945312 3.30859375 c 2,4,-1
 170.090820312 3.30859375 l 2,5,6
 328.85546875 3.30859375 328.85546875 3.30859375 356.850585938 162.073242188 c 2,7,-1
 412.83984375 479.603515625 l 1,8,-1
 306.99609375 479.603515625 l 1,9,-1
 251.006835938 162.073242188 l 2,10,11
 247.506835938 142.227539062 247.506835938 142.227539062 228.053710938 125.689453125 c 128,-1,12
 208.599609375 109.15234375 208.599609375 109.15234375 188.75390625 109.15234375 c 2,13,-1
 135.83203125 109.15234375 l 2,14,15
 115.986328125 109.15234375 115.986328125 109.15234375 102.365234375 125.689453125 c 128,-1,16
 88.7431640625 142.227539062 88.7431640625 142.227539062 92.2431640625 162.073242188 c 2,17,-1
 148.232421875 479.603515625 l 1,0,-1
EndSplineSet
EndChar

StartChar: v
Encoding: 118 118 65
Width: 432
VWidth: 1000
GlyphClass: 1
Flags: W
LayerCount: 2
Fore
SplineSet
196.458007812 4.30859375 m 1,0,-1
 92.2255859375 4.30859375 l 1,1,-1
 21.783203125 355.090820312 l 1,2,-1
 43.3427734375 477.36328125 l 1,3,-1
 149.580078125 477.36328125 l 1,4,-1
 121.658203125 319.009765625 l 1,5,-1
 163.07421875 110.545898438 l 1,6,-1
 278.006835938 319.009765625 l 1,7,-1
 305.928710938 477.36328125 l 1,8,-1
 412.165039062 477.36328125 l 1,9,-1
 390.60546875 355.090820312 l 1,10,-1
 196.458007812 4.30859375 l 1,0,-1
EndSplineSet
EndChar

StartChar: w
Encoding: 119 119 66
Width: 643
VWidth: 1000
GlyphClass: 1
Flags: W
LayerCount: 2
Fore
SplineSet
323.239257812 267.806640625 m 1,0,-1
 394.5234375 373.205078125 l 1,1,-1
 413.108398438 478.604492188 l 1,2,-1
 307.708984375 478.604492188 l 1,3,-1
 279.83203125 320.505859375 l 1,4,-1
 163.612304688 109.70703125 l 1,5,-1
 121.733398438 320.505859375 l 1,6,-1
 149.610351562 478.604492188 l 1,7,-1
 44.2109375 478.604492188 l 1,8,-1
 25.6259765625 373.205078125 l 1,9,-1
 118.678710938 4.3076171875 l 1,10,-1
 171.377929688 4.3076171875 l 1,11,-1
 278.3046875 162.40625 l 1,12,-1
 329.477539062 4.3076171875 l 1,13,-1
 382.176757812 4.3076171875 l 1,14,-1
 605.321289062 373.205078125 l 1,15,-1
 623.90625 478.604492188 l 1,16,-1
 518.506835938 478.604492188 l 1,17,-1
 490.629882812 320.505859375 l 1,18,-1
 374.412109375 109.70703125 l 1,19,-1
 323.239257812 267.806640625 l 1,0,-1
EndSplineSet
EndChar

StartChar: x
Encoding: 120 120 67
Width: 433
VWidth: 1000
GlyphClass: 1
Flags: W
LayerCount: 2
Fore
SplineSet
78.91796875 83.357421875 m 1,0,-1
 64.9794921875 4.3076171875 l 1,1,-1
 -40.419921875 4.3076171875 l 1,2,-1
 -26.4814453125 83.357421875 l 1,3,-1
 159.494140625 241.456054688 l 1,4,-1
 29.2724609375 399.555664062 l 1,5,-1
 43.2109375 478.604492188 l 1,6,-1
 148.610351562 478.604492188 l 1,7,-1
 134.671875 399.555664062 l 1,8,-1
 199.782226562 320.505859375 l 1,9,-1
 292.770507812 399.555664062 l 1,10,-1
 306.708984375 478.604492188 l 1,11,-1
 412.108398438 478.604492188 l 1,12,-1
 398.169921875 399.555664062 l 1,13,-1
 212.193359375 241.456054688 l 1,14,-1
 342.416015625 83.357421875 l 1,15,-1
 328.477539062 4.3076171875 l 1,16,-1
 223.078125 4.3076171875 l 1,17,-1
 237.016601562 83.357421875 l 1,18,-1
 171.905273438 162.40625 l 1,19,-1
 78.91796875 83.357421875 l 1,0,-1
EndSplineSet
EndChar

StartChar: y
Encoding: 121 121 68
Width: 377
VWidth: 1000
GlyphClass: 1
Flags: W
LayerCount: 2
Fore
SplineSet
359.78515625 475.987304688 m 1,0,-1
 341.149414062 370.296875 l 2,1,2
 337.514648438 349.684570312 337.514648438 349.684570312 335.73828125 340.193359375 c 128,-1,3
 333.962890625 330.702148438 333.962890625 330.702148438 330.41796875 314.104492188 c 128,-1,4
 326.873046875 297.506835938 326.873046875 297.506835938 324.193359375 290.11328125 c 128,-1,5
 321.514648438 282.719726562 321.514648438 282.719726562 316.829101562 270.381835938 c 128,-1,6
 312.14453125 258.043945312 312.14453125 258.043945312 307.28125 252.719726562 c 128,-1,7
 302.41796875 247.396484375 302.41796875 247.396484375 295.311523438 239.290039062 c 128,-1,8
 288.205078125 231.182617188 288.205078125 231.182617188 279.87890625 227.901367188 c 128,-1,9
 271.551757812 224.620117188 271.551757812 224.620117188 260.743164062 220.716796875 c 128,-1,10
 249.934570312 216.8125 249.934570312 216.8125 236.862304688 215.545898438 c 128,-1,11
 223.790039062 214.278320312 223.790039062 214.278320312 207.94921875 214.278320312 c 0,12,13
 206.942382812 214.278320312 206.942382812 214.278320312 206.764648438 213.271484375 c 2,14,-1
 169.670898438 2.8994140625 l 1,15,-1
 67.0009765625 2.8994140625 l 1,16,-1
 104.094726562 213.271484375 l 2,17,18
 104.272460938 214.278320312 104.272460938 214.278320312 103.265625 214.278320312 c 0,19,20
 87.4248046875 214.278320312 87.4248046875 214.278320312 74.7998046875 215.545898438 c 128,-1,21
 62.1748046875 216.8125 62.1748046875 216.8125 52.7431640625 220.716796875 c 128,-1,22
 43.3115234375 224.620117188 43.3115234375 224.620117188 36.140625 227.901367188 c 128,-1,23
 28.970703125 231.182617188 28.970703125 231.182617188 24.7236328125 239.290039062 c 128,-1,24
 20.4765625 247.396484375 20.4765625 247.396484375 17.490234375 252.719726562 c 128,-1,25
 14.505859375 258.043945312 14.505859375 258.043945312 14.1708984375 270.381835938 c 128,-1,26
 13.8369140625 282.719726562 13.8369140625 282.719726562 13.765625 290.11328125 c 128,-1,27
 13.693359375 297.506835938 13.693359375 297.506835938 16.001953125 314.104492188 c 128,-1,28
 18.310546875 330.702148438 18.310546875 330.702148438 19.880859375 340.193359375 c 128,-1,29
 21.4521484375 349.684570312 21.4521484375 349.684570312 25.0869140625 370.296875 c 2,30,-1
 43.72265625 475.987304688 l 1,31,-1
 148.405273438 475.987304688 l 1,32,-1
 120.540039062 317.955078125 l 2,33,34
 120.362304688 316.94921875 120.362304688 316.94921875 121.369140625 316.94921875 c 2,35,-1
 226.052734375 316.94921875 l 2,36,37
 227.059570312 316.94921875 227.059570312 316.94921875 227.237304688 317.955078125 c 2,38,-1
 255.102539062 475.987304688 l 1,39,-1
 359.78515625 475.987304688 l 1,0,-1
64.8095703125 1.892578125 m 2,40,41
 64.6318359375 0.88671875 64.6318359375 0.88671875 65.638671875 0.88671875 c 2,42,-1
 170.322265625 0.88671875 l 2,43,44
 171.329101562 0.88671875 171.329101562 0.88671875 171.506835938 1.892578125 c 2,45,-1
 208.6015625 212.266601562 l 1,46,47
 228.459960938 212.329101562 228.459960938 212.329101562 244.142578125 214.48046875 c 128,-1,48
 259.825195312 216.631835938 259.825195312 216.631835938 272.0703125 222.8359375 c 128,-1,49
 284.317382812 229.040039062 284.317382812 229.040039062 293.076171875 234.53125 c 128,-1,50
 301.834960938 240.021484375 301.834960938 240.021484375 309.0234375 252.709960938 c 128,-1,51
 316.211914062 265.397460938 316.211914062 265.397460938 320.524414062 274.173828125 c 128,-1,52
 324.837890625 282.950195312 324.837890625 282.950195312 329.444335938 302.067382812 c 128,-1,53
 334.052734375 321.185546875 334.052734375 321.185546875 336.39453125 333.192382812 c 128,-1,54
 338.737304688 345.200195312 338.737304688 345.200195312 343.163085938 370.296875 c 2,55,-1
 361.9765625 476.993164062 l 2,56,57
 362.154296875 478 362.154296875 478 361.147460938 478 c 2,58,-1
 254.451171875 478 l 2,59,60
 253.444335938 478 253.444335938 478 253.266601562 476.993164062 c 2,61,-1
 225.401367188 318.961914062 l 1,62,-1
 122.731445312 318.961914062 l 1,63,-1
 150.596679688 476.993164062 l 2,64,65
 150.774414062 478 150.774414062 478 149.767578125 478 c 2,66,-1
 43.0712890625 478 l 2,67,68
 42.064453125 478 42.064453125 478 41.88671875 476.993164062 c 2,69,-1
 23.0732421875 370.296875 l 2,70,71
 18.6474609375 345.200195312 18.6474609375 345.200195312 16.755859375 333.192382812 c 128,-1,72
 14.86328125 321.185546875 14.86328125 321.185546875 12.7294921875 302.067382812 c 128,-1,73
 10.595703125 282.950195312 10.595703125 282.950195312 11.8134765625 274.173828125 c 128,-1,74
 13.0302734375 265.397460938 13.0302734375 265.397460938 15.744140625 252.709960938 c 128,-1,75
 18.4580078125 240.021484375 18.4580078125 240.021484375 25.28125 234.53125 c 128,-1,76
 32.1044921875 229.040039062 32.1044921875 229.040039062 42.162109375 222.8359375 c 128,-1,77
 52.2197265625 216.631835938 52.2197265625 216.631835938 67.14453125 214.48046875 c 128,-1,78
 82.0673828125 212.329101562 82.0673828125 212.329101562 101.904296875 212.266601562 c 1,79,-1
 64.8095703125 1.892578125 l 2,40,41
170.5 1.892578125 m 1,80,-1
 65.81640625 1.892578125 l 1,81,-1
 103.087890625 213.271484375 l 1,82,83
 87.13671875 213.271484375 87.13671875 213.271484375 74.4072265625 214.580078125 c 128,-1,84
 61.677734375 215.888671875 61.677734375 215.888671875 52.171875 219.814453125 c 128,-1,85
 42.6650390625 223.740234375 42.6650390625 223.740234375 35.4375 227.141601562 c 128,-1,86
 28.2099609375 230.543945312 28.2099609375 230.543945312 23.9111328125 238.657226562 c 128,-1,87
 19.61328125 246.770507812 19.61328125 246.770507812 16.607421875 252.266601562 c 128,-1,88
 13.6025390625 257.76171875 13.6025390625 257.76171875 13.2314453125 270.0625 c 128,-1,89
 12.859375 282.362304688 12.859375 282.362304688 12.796875 289.952148438 c 128,-1,90
 12.732421875 297.541992188 12.732421875 297.541992188 15.0087890625 314.029296875 c 128,-1,91
 17.28515625 330.517578125 17.28515625 330.517578125 18.8828125 340.200195312 c 128,-1,92
 20.48046875 349.883789062 20.48046875 349.883789062 24.080078125 370.296875 c 2,93,-1
 42.8935546875 476.993164062 l 1,94,-1
 149.58984375 476.993164062 l 1,95,-1
 121.546875 317.955078125 l 1,96,-1
 226.23046875 317.955078125 l 1,97,-1
 254.2734375 476.993164062 l 1,98,-1
 360.969726562 476.993164062 l 1,99,-1
 342.15625 370.296875 l 2,100,101
 338.556640625 349.883789062 338.556640625 349.883789062 336.740234375 340.200195312 c 128,-1,102
 334.921875 330.517578125 334.921875 330.517578125 331.383789062 314.029296875 c 128,-1,103
 327.845703125 297.541992188 327.845703125 297.541992188 325.10546875 289.952148438 c 128,-1,104
 322.365234375 282.362304688 322.365234375 282.362304688 317.657226562 270.0625 c 128,-1,105
 312.948242188 257.76171875 312.948242188 257.76171875 308.00390625 252.266601562 c 128,-1,106
 303.060546875 246.770507812 303.060546875 246.770507812 295.901367188 238.657226562 c 128,-1,107
 288.741210938 230.543945312 288.741210938 230.543945312 280.314453125 227.141601562 c 128,-1,108
 271.887695312 223.740234375 271.887695312 223.740234375 260.99609375 219.814453125 c 128,-1,109
 250.10546875 215.888671875 250.10546875 215.888671875 236.915039062 214.580078125 c 128,-1,110
 223.72265625 213.271484375 223.72265625 213.271484375 207.771484375 213.271484375 c 1,111,-1
 170.5 1.892578125 l 1,80,-1
EndSplineSet
EndChar

StartChar: z
Encoding: 122 122 69
Width: 382
VWidth: 1000
GlyphClass: 1
Flags: W
LayerCount: 2
Fore
SplineSet
57.705078125 110.396484375 m 2,0,1
 57.1474609375 109.924804688 57.1474609375 109.924804688 57.2939453125 109.302734375 c 128,-1,2
 57.44140625 108.680664062 57.44140625 108.680664062 58.109375 108.680664062 c 2,3,-1
 293.951171875 108.680664062 l 1,4,-1
 275.547851562 4.3076171875 l 1,5,-1
 -39.578125 4.3076171875 l 1,6,-1
 -16.470703125 135.359375 l 1,7,-1
 261.435546875 369.904296875 l 2,8,9
 261.994140625 370.375976562 261.994140625 370.375976562 261.84765625 370.998046875 c 128,-1,10
 261.700195312 371.620117188 261.700195312 371.620117188 261.032226562 371.620117188 c 2,11,-1
 25.1884765625 371.620117188 l 1,12,-1
 43.591796875 475.993164062 l 1,13,-1
 358.717773438 475.993164062 l 1,14,-1
 335.610351562 344.940429688 l 1,15,-1
 57.705078125 110.396484375 l 2,0,1
-17.9814453125 136.489257812 m 2,16,17
 -18.330078125 136.194335938 -18.330078125 136.194335938 -41.7626953125 3.3037109375 c 0,18,19
 -41.939453125 2.30078125 -41.939453125 2.30078125 -40.935546875 2.30078125 c 2,20,-1
 276.197265625 2.30078125 l 2,21,22
 277.200195312 2.30078125 277.200195312 2.30078125 277.376953125 3.3037109375 c 2,23,-1
 296.134765625 109.68359375 l 2,24,25
 296.311523438 110.6875 296.311523438 110.6875 295.30859375 110.6875 c 2,26,-1
 60.900390625 110.6875 l 1,27,-1
 337.12109375 343.810546875 l 2,28,29
 337.469726562 344.10546875 337.469726562 344.10546875 360.90234375 476.99609375 c 0,30,31
 361.079101562 478 361.079101562 478 360.076171875 478 c 2,32,-1
 42.943359375 478 l 2,33,34
 41.939453125 478 41.939453125 478 41.7626953125 476.99609375 c 2,35,-1
 23.0048828125 370.616210938 l 2,36,37
 22.828125 369.61328125 22.828125 369.61328125 23.83203125 369.61328125 c 2,38,-1
 258.241210938 369.61328125 l 1,39,-1
 -17.9814453125 136.489257812 l 2,16,17
295.131835938 109.68359375 m 1,40,-1
 276.374023438 3.3037109375 l 1,41,-1
 -40.7587890625 3.3037109375 l 1,42,-1
 -17.400390625 135.776367188 l 1,43,-1
 260.85546875 370.616210938 l 1,44,-1
 24.0087890625 370.616210938 l 1,45,-1
 42.7666015625 476.99609375 l 1,46,-1
 359.899414062 476.99609375 l 1,47,-1
 336.540039062 344.522460938 l 1,48,-1
 58.2861328125 109.68359375 l 1,49,-1
 295.131835938 109.68359375 l 1,40,-1
EndSplineSet
EndChar

StartChar: H
Encoding: 72 72 70
Width: 595
Flags: W
LayerCount: 2
Fore
SplineSet
-56.7314453125 3.3046875 m 2,0,-1
 51.23046875 3.3046875 l 2,1,2
 52.2490234375 3.3046875 52.2490234375 3.3046875 52.427734375 4.3232421875 c 2,3,-1
 99.30078125 270.153320312 l 1,4,-1
 417.07421875 270.153320312 l 1,5,-1
 370.201171875 4.3232421875 l 2,6,7
 370.022460938 3.3046875 370.022460938 3.3046875 371.041015625 3.3046875 c 2,8,-1
 479.001953125 3.3046875 l 2,9,10
 480.020507812 3.3046875 480.020507812 3.3046875 480.19921875 4.3232421875 c 2,11,-1
 593.341796875 645.981445312 l 2,12,13
 593.520507812 647 593.520507812 647 592.501953125 647 c 2,14,-1
 484.541015625 647 l 2,15,16
 483.522460938 647 483.522460938 647 483.34375 645.981445312 c 2,17,-1
 436.470703125 380.151367188 l 1,18,-1
 118.697265625 380.151367188 l 1,19,-1
 165.5703125 645.981445312 l 2,20,21
 165.749023438 647 165.749023438 647 164.73046875 647 c 2,22,-1
 56.7685546875 647 l 2,23,24
 55.75 647 55.75 647 55.5712890625 645.981445312 c 2,25,-1
 -57.5712890625 4.3232421875 l 2,26,27
 -57.75 3.3046875 -57.75 3.3046875 -56.7314453125 3.3046875 c 2,0,-1
50.5703125 5.341796875 m 1,28,-1
 -55.3544921875 5.341796875 l 1,29,-1
 57.4287109375 644.962890625 l 1,30,-1
 163.353515625 644.962890625 l 1,31,-1
 116.48046875 379.1328125 l 2,32,33
 116.30078125 378.114257812 116.30078125 378.114257812 117.319335938 378.114257812 c 2,34,-1
 437.129882812 378.114257812 l 2,35,36
 438.1484375 378.114257812 438.1484375 378.114257812 438.328125 379.1328125 c 2,37,-1
 485.201171875 644.962890625 l 1,38,-1
 591.125 644.962890625 l 1,39,-1
 478.341796875 5.341796875 l 1,40,-1
 372.41796875 5.341796875 l 1,41,-1
 419.291015625 271.171875 l 2,42,43
 419.470703125 272.190429688 419.470703125 272.190429688 418.452148438 272.190429688 c 2,44,-1
 98.6416015625 272.190429688 l 2,45,46
 97.623046875 272.190429688 97.623046875 272.190429688 97.443359375 271.171875 c 2,47,-1
 50.5703125 5.341796875 l 1,28,-1
-56.552734375 4.3232421875 m 1,48,-1
 56.58984375 645.981445312 l 1,49,-1
 164.551757812 645.981445312 l 1,50,-1
 117.499023438 379.1328125 l 1,51,-1
 437.309570312 379.1328125 l 1,52,-1
 484.362304688 645.981445312 l 1,53,-1
 592.323242188 645.981445312 l 1,54,-1
 479.180664062 4.3232421875 l 1,55,-1
 371.219726562 4.3232421875 l 1,56,-1
 418.272460938 271.171875 l 1,57,-1
 98.4619140625 271.171875 l 1,58,-1
 51.4091796875 4.3232421875 l 1,59,-1
 -56.552734375 4.3232421875 l 1,48,-1
EndSplineSet
EndChar
